<?xml version="1.0" standalone="no"?>
<!DOCTYPE svg PUBLIC "-//W3C//DTD SVG 20010904//EN"
 "http://www.w3.org/TR/2001/REC-SVG-20010904/DTD/svg10.dtd">
<svg version="1.0" xmlns="http://www.w3.org/2000/svg"
 width="1200.000000pt" height="1200.000000pt" viewBox="0 0 1200.000000 1200.000000"
 preserveAspectRatio="xMidYMid meet">

<g transform="translate(0.000000,1200.000000) scale(0.100000,-0.100000)"
fill="#000000" stroke="none">
<path d="M5575 11939 c-123 -10 -335 -33 -452 -51 -75 -11 -80 -13 -130 -64
-106 -109 -124 -265 -41 -360 17 -19 32 -33 34 -31 3 2 -8 26 -23 53 -23 40
-28 61 -27 114 1 104 60 192 162 241 62 30 176 37 261 15 l63 -16 29 25 c43
36 139 59 153 36 3 -5 -12 -20 -34 -35 -63 -41 -75 -74 -72 -190 3 -119 -16
-203 -59 -265 -16 -24 -29 -44 -27 -46 2 -1 75 4 163 11 88 7 227 13 308 14
170 0 189 6 260 76 98 96 121 234 56 326 -27 38 -33 31 -14 -15 41 -97 3 -229
-84 -293 -105 -78 -232 -83 -381 -17 l-45 20 -28 -21 c-21 -16 -43 -21 -89
-21 -70 0 -85 15 -34 33 45 16 94 73 100 114 2 18 9 68 15 111 12 84 43 155
92 212 l31 35 -38 -1 c-22 -1 -88 -6 -149 -10z"/>
<path d="M5875 11933 c-44 -23 -104 -83 -126 -126 -29 -56 -41 -132 -28 -181
36 -134 233 -182 346 -83 92 81 84 226 -14 269 -130 57 -276 -89 -183 -182 48
-48 156 -7 148 58 -5 41 -42 42 -63 2 -28 -55 -80 -20 -56 38 18 44 71 67 117
52 122 -40 70 -222 -68 -237 -145 -16 -224 130 -140 256 55 82 141 121 267
121 60 0 82 -5 133 -31 58 -29 62 -29 86 -14 35 23 94 36 134 29 41 -8 41 -20
-3 -34 -68 -22 -87 -61 -120 -234 -17 -92 -46 -162 -89 -213 l-26 -31 113 -7
c121 -7 464 -43 485 -50 19 -7 88 19 132 50 76 53 131 177 116 259 -22 114
-194 183 -314 125 -142 -69 -130 -279 18 -303 143 -23 239 166 104 203 -44 12
-77 1 -100 -33 -33 -51 14 -89 51 -42 26 32 58 32 63 -1 8 -57 -62 -103 -124
-83 -44 15 -64 44 -64 95 0 79 62 135 152 135 207 0 207 -274 0 -344 -96 -33
-240 -14 -318 42 -36 26 -42 27 -69 16 -49 -21 -165 -16 -165 7 0 10 8 14 54
24 51 11 82 57 120 178 36 115 82 197 132 236 18 14 22 22 13 25 -31 10 -346
26 -509 26 -139 -1 -181 -4 -205 -17z"/>
<path d="M6692 11878 c-55 -26 -122 -92 -147 -143 -30 -60 -28 -168 3 -215 13
-19 21 -26 17 -15 -15 40 -17 126 -5 170 27 96 131 173 246 183 75 6 175 -22
247 -68 45 -29 49 -29 72 -14 39 25 165 20 165 -6 0 -5 -16 -13 -35 -19 -46
-12 -92 -46 -109 -79 -7 -15 -21 -61 -30 -102 -20 -93 -60 -165 -122 -219 -26
-22 -44 -41 -40 -41 21 0 352 -76 459 -105 70 -19 142 -35 160 -35 71 1 180
72 223 146 33 56 42 144 21 194 l-15 35 1 -65 c0 -143 -81 -233 -240 -265 -74
-15 -208 34 -283 102 -39 34 -41 35 -83 25 -24 -7 -57 -8 -77 -3 -77 17 -103
51 -38 51 41 0 95 27 116 59 10 14 29 53 42 86 38 96 85 160 152 205 33 22 58
40 55 40 -4 0 -68 14 -144 31 -177 39 -472 89 -526 89 -23 -1 -61 -10 -85 -22z"/>
<path d="M4725 11816 c-82 -19 -226 -54 -320 -80 -170 -47 -170 -47 -217 -96
-60 -64 -82 -128 -76 -221 6 -83 37 -137 94 -164 51 -24 129 -22 193 5 125 54
163 183 85 287 -92 122 -309 -11 -239 -146 22 -44 71 -54 124 -26 42 21 57 79
27 104 -20 17 -41 4 -52 -32 -10 -34 -41 -48 -55 -25 -18 27 -9 69 20 99 91
90 222 -43 149 -151 -37 -54 -71 -73 -135 -77 -75 -5 -116 19 -145 84 -23 53
-21 107 7 167 55 115 220 194 351 167 57 -11 58 -11 88 18 33 32 93 61 126 61
27 0 25 -14 -6 -35 -14 -9 -35 -37 -46 -63 -19 -42 -20 -51 -8 -133 20 -139 7
-251 -37 -330 -2 -3 61 9 139 27 79 18 222 47 318 63 l175 30 51 55 c59 62 84
123 84 202 0 90 -31 141 -105 175 -82 38 -199 15 -258 -50 -44 -49 -61 -105
-48 -161 13 -57 37 -89 79 -107 129 -54 273 107 177 197 -20 19 -32 22 -65 17
-57 -7 -82 -32 -78 -76 3 -31 7 -36 28 -36 17 0 26 7 30 24 8 33 34 49 54 32
23 -20 20 -55 -9 -89 -69 -82 -183 -23 -172 88 7 61 64 115 131 125 123 19
206 -77 175 -201 -17 -68 -102 -153 -179 -179 -74 -25 -183 -26 -237 -2 l-41
19 -26 -24 c-34 -29 -80 -46 -128 -47 -47 -1 -48 9 -3 33 63 34 78 72 81 208
4 131 14 182 50 247 13 24 24 45 24 47 0 7 -23 3 -175 -30z"/>
<path d="M7524 11723 c-154 -45 -254 -221 -188 -333 41 -71 160 -122 245 -106
115 21 185 161 129 254 -49 81 -196 82 -243 3 -42 -72 -5 -141 74 -141 63 0
103 58 64 90 -13 11 -20 9 -44 -14 -34 -33 -61 -26 -61 14 0 54 77 88 133 58
35 -18 46 -40 47 -89 0 -103 -109 -159 -215 -110 -53 24 -76 51 -82 100 -17
126 71 218 219 229 96 7 190 -24 256 -83 47 -42 51 -44 81 -34 34 12 94 6 136
-13 34 -15 31 -28 -7 -28 -17 0 -51 -11 -74 -25 -37 -22 -49 -39 -93 -129 -51
-108 -97 -168 -165 -217 -25 -19 -34 -30 -25 -33 87 -29 323 -121 433 -168
158 -68 185 -70 281 -23 171 83 207 277 67 366 -82 52 -149 61 -218 30 -61
-28 -97 -80 -102 -150 -4 -50 -1 -61 22 -88 68 -81 198 -77 242 8 21 42 17 67
-15 100 -53 53 -148 31 -139 -33 4 -28 30 -35 52 -13 9 9 26 15 38 13 58 -8 9
-89 -55 -91 -77 -2 -121 63 -93 137 19 49 73 86 128 86 48 0 119 -39 146 -80
47 -70 11 -176 -76 -228 -42 -24 -57 -27 -138 -27 -84 0 -96 3 -160 35 -47 24
-79 49 -102 80 -34 44 -36 45 -82 42 -32 -3 -63 3 -93 16 -64 28 -68 42 -12
42 76 0 124 36 180 135 41 71 130 161 187 188 l50 24 -96 36 c-195 75 -550
190 -575 186 -3 0 -29 -7 -57 -16z"/>
<path d="M3915 11576 c-144 -55 -298 -120 -417 -175 -76 -35 -105 -71 -132
-161 -35 -119 -4 -229 83 -287 47 -32 59 -29 20 4 -78 66 -102 202 -53 301 53
106 162 170 309 179 76 5 81 7 100 36 25 39 80 77 111 77 30 0 30 -5 -1 -42
-13 -16 -30 -47 -36 -69 -11 -35 -9 -50 20 -142 35 -115 40 -198 16 -267 -8
-24 -13 -45 -11 -47 2 -2 59 18 127 45 68 28 198 73 289 102 155 49 168 55
207 96 71 75 101 196 72 285 -14 41 -53 95 -79 109 -16 8 -13 1 11 -39 52 -83
57 -178 15 -260 -23 -43 -97 -108 -151 -133 -42 -19 -67 -23 -165 -24 -115 0
-115 0 -148 -32 -35 -33 -103 -58 -130 -47 -12 4 -8 12 20 35 21 17 44 50 53
75 16 41 16 50 1 125 -25 126 -20 181 29 293 11 26 -4 22 -160 -37z"/>
<path d="M8329 11449 c-105 -16 -190 -75 -233 -161 -26 -52 -33 -113 -17 -153
6 -14 9 -4 14 37 14 142 115 228 267 228 97 0 175 -35 257 -115 58 -56 58 -56
123 -58 95 -3 172 -57 81 -57 -81 0 -125 -31 -174 -125 -44 -84 -129 -167
-196 -192 l-54 -20 99 -53 c124 -66 263 -147 377 -218 l88 -55 67 5 c153 11
263 117 261 250 l-1 53 -14 -62 c-18 -73 -75 -145 -139 -174 -61 -28 -175 -26
-242 5 -63 30 -131 91 -172 155 -29 45 -34 48 -75 48 -24 1 -54 7 -67 13 -28
15 -69 50 -69 61 0 3 28 5 63 2 78 -5 104 10 180 105 62 78 132 127 208 147
28 8 53 15 55 17 11 11 -548 299 -616 317 -14 4 -46 4 -71 0z"/>
<path d="M3605 11340 c-119 -48 -174 -153 -134 -257 15 -42 68 -92 104 -99 43
-8 108 20 145 62 40 46 43 117 5 158 -66 71 -198 -22 -141 -100 21 -27 49 -8
56 37 4 28 9 34 29 34 18 0 27 -8 34 -28 29 -89 -97 -157 -163 -87 -62 66 -39
170 49 217 122 64 240 -16 229 -156 -5 -70 -29 -119 -80 -171 -63 -62 -138
-94 -233 -99 -77 -3 -81 -4 -100 -34 -23 -36 -89 -77 -124 -77 l-25 0 26 28
c57 60 61 107 23 238 -26 91 -33 201 -16 262 5 17 7 32 4 32 -19 0 -391 -216
-534 -310 -79 -51 -109 -102 -116 -196 -13 -156 91 -280 216 -259 62 10 139
61 172 112 53 84 32 193 -48 248 -45 30 -81 32 -133 5 -63 -32 -101 -104 -86
-163 9 -37 55 -77 88 -77 35 0 98 56 98 87 0 24 -27 63 -45 63 -19 0 -28 -17
-29 -59 -2 -71 -66 -45 -66 27 0 48 46 92 95 92 29 0 45 -8 71 -34 30 -30 34
-41 34 -84 0 -63 -30 -109 -90 -140 -115 -59 -225 19 -225 158 1 144 140 281
302 297 47 5 56 9 64 32 19 48 83 101 124 101 14 0 13 -4 -4 -26 -29 -37 -42
-92 -31 -134 4 -19 24 -71 44 -116 39 -88 55 -174 45 -244 -4 -25 -6 -46 -5
-47 1 -1 38 19 81 44 44 25 170 92 280 148 184 93 202 105 232 148 58 86 64
194 16 294 -37 78 -145 111 -238 73z"/>
<path d="M5214 11034 c-13 -39 -26 -59 -41 -65 -13 -5 -23 -14 -23 -21 -1 -8
-6 -6 -14 5 -13 17 -18 16 -117 -6 l-104 -23 3 -34 c1 -19 4 -35 5 -36 2 -2
51 8 110 21 102 23 109 24 157 8 27 -9 50 -22 50 -29 0 -19 -29 -44 -51 -44
-23 0 -24 -12 -4 -50 15 -28 35 -40 35 -21 0 16 52 23 61 9 18 -27 10 -40 -20
-36 -26 4 -30 1 -35 -25 -3 -16 -6 -44 -6 -62 0 -29 4 -33 30 -37 36 -5 40 -3
40 34 0 15 5 28 10 28 6 0 10 -9 10 -19 0 -11 2 -26 5 -33 4 -11 -39 -24 -189
-57 -107 -23 -205 -45 -218 -48 -16 -3 -19 -2 -10 5 11 7 11 18 3 48 -14 51
-8 53 14 4 10 -22 21 -40 24 -40 3 0 17 9 30 19 l25 19 -25 47 c-27 53 -39 61
-67 46 -17 -9 -21 -7 -26 12 -3 12 -6 25 -6 30 0 13 32 7 44 -8 10 -12 14 -12
36 4 24 19 24 19 6 53 -34 63 -45 74 -64 62 -9 -6 -21 -20 -27 -32 -9 -20 -25
-30 -25 -17 0 12 40 84 55 99 19 19 13 31 -26 51 -29 15 -29 15 -46 -20 -14
-30 -33 -47 -33 -30 0 16 35 72 53 86 21 17 21 17 -14 38 -19 11 -37 21 -42
21 -4 0 -19 -25 -34 -55 -17 -34 -32 -54 -40 -51 -13 5 -43 -30 -43 -51 0 -7
17 -22 38 -32 65 -35 64 -35 51 -65 -7 -15 -28 -34 -47 -41 -28 -12 -32 -18
-27 -37 13 -42 29 -52 56 -35 58 36 64 33 79 -40 17 -86 18 -91 38 -96 10 -3
5 -5 -10 -6 -20 -1 -28 -6 -28 -18 0 -36 13 -63 29 -63 9 0 117 22 241 50 124
27 234 50 245 50 46 -1 -18 -19 -205 -59 -107 -23 -212 -47 -232 -52 -41 -10
-36 4 -53 -176 l-6 -63 51 0 c49 0 50 1 50 30 0 17 3 30 7 30 3 0 98 20 210
45 111 25 207 45 213 45 5 0 10 -6 10 -14 0 -27 -48 -53 -129 -70 -45 -10 -81
-19 -81 -21 0 -13 35 -75 42 -75 5 0 41 7 81 16 129 29 168 63 198 175 16 60
8 79 -33 79 -18 0 -142 -24 -275 -53 -214 -47 -243 -52 -243 -37 0 14 43 26
246 71 135 30 250 57 256 60 7 4 4 34 -7 88 -14 62 -22 81 -35 81 -9 0 -17 6
-17 13 0 6 -3 28 -7 47 l-8 35 27 -37 c28 -41 41 -45 69 -25 17 13 17 16 -15
65 -30 46 -37 51 -61 46 -21 -4 -28 -1 -33 17 -9 28 16 46 29 21 5 -9 10 -18
11 -20 5 -6 55 22 55 31 0 5 -14 34 -31 63 -30 53 -31 53 -55 38 -13 -9 -24
-25 -24 -35 0 -11 -4 -19 -10 -19 -13 0 -13 1 10 64 12 30 27 57 35 60 25 9
17 26 -21 42 -20 8 -37 14 -39 12 -1 -2 -13 -23 -25 -48 -13 -25 -25 -40 -27
-33 -6 17 33 103 46 103 20 0 11 20 -11 29 -65 24 -63 25 -84 -35z m153 -440
c-3 -3 -12 -4 -19 -1 -8 3 -5 6 6 6 11 1 17 -2 13 -5z"/>
<path d="M8982 11045 c-97 -30 -180 -119 -190 -201 -14 -132 166 -262 295
-213 97 36 146 168 88 237 -31 37 -82 62 -127 62 -73 0 -137 -72 -116 -131 19
-55 98 -80 138 -44 41 37 13 81 -35 55 -53 -28 -76 22 -28 60 34 26 84 22 119
-11 33 -31 39 -71 18 -115 -43 -89 -160 -100 -241 -22 -44 42 -57 85 -43 137
46 171 299 191 454 35 25 -24 50 -60 56 -79 11 -33 14 -35 59 -35 35 0 59 -8
94 -30 26 -16 47 -33 47 -37 0 -5 -30 -8 -68 -8 -78 0 -101 -13 -175 -106 -53
-65 -136 -125 -207 -149 l-51 -17 68 -49 c97 -68 223 -166 331 -257 51 -43
107 -83 125 -88 148 -42 337 74 337 207 0 107 -116 216 -230 216 -78 0 -144
-49 -170 -127 -15 -44 -8 -74 26 -115 35 -41 74 -60 126 -60 50 0 82 19 103
60 22 42 19 58 -19 96 -42 42 -77 44 -113 8 -24 -24 -24 -27 -9 -42 13 -14 21
-14 46 -5 25 9 33 9 46 -4 32 -33 -34 -83 -90 -69 -39 10 -76 53 -76 88 0 69
54 118 130 118 61 0 108 -27 142 -79 24 -38 29 -54 25 -88 -6 -56 -48 -110
-105 -135 -60 -27 -167 -21 -230 11 -70 36 -147 118 -168 179 -16 44 -23 52
-43 52 -35 0 -107 37 -131 67 -11 15 -19 28 -16 30 2 2 24 -2 49 -9 65 -17
110 0 192 72 88 78 159 118 236 134 l62 12 -141 107 c-166 125 -370 263 -418
283 -41 17 -115 17 -172 -1z"/>
<path d="M4990 11031 c-72 -17 -75 -19 -73 -45 1 -16 5 -31 7 -34 7 -6 178 28
189 38 4 4 5 19 1 34 -7 31 -17 31 -124 7z"/>
<path d="M6937 10993 c-3 -16 -1 -30 3 -33 4 -3 90 -27 189 -54 124 -33 181
-53 181 -63 0 -27 -30 -24 -179 18 -83 23 -153 40 -156 37 -3 -3 -7 -18 -8
-33 l-2 -28 375 -103 c206 -56 376 -102 377 -100 2 1 5 16 9 32 l6 30 -162 44
c-151 42 -186 59 -164 80 5 4 88 -14 184 -41 96 -26 181 -48 187 -49 13 0 30
47 20 56 -3 3 -85 27 -182 54 -177 49 -202 59 -177 67 23 9 12 24 -30 43 -50
23 -68 25 -68 8 -1 -39 -14 -38 -197 12 -100 28 -185 50 -191 50 -5 0 -12 -12
-15 -27z"/>
<path d="M2994 10978 c48 -32 89 -74 109 -112 30 -59 30 -164 -1 -227 -49
-100 -150 -168 -281 -191 -58 -10 -71 -16 -75 -33 -3 -12 -15 -34 -27 -49 -22
-28 -93 -69 -102 -59 -4 3 5 25 18 48 37 62 33 111 -16 211 -46 96 -65 188
-51 252 6 23 6 42 2 42 -19 0 -422 -318 -526 -416 -63 -59 -71 -209 -17 -307
35 -61 109 -117 156 -117 29 0 28 1 -20 25 -120 60 -164 204 -105 337 39 89
112 149 236 194 53 19 62 26 67 53 8 38 48 92 83 110 34 18 41 10 23 -26 -40
-76 -30 -129 38 -219 64 -83 89 -148 89 -235 1 -77 1 -77 22 -60 119 92 309
231 395 288 94 64 108 77 127 121 70 163 6 339 -138 376 -23 6 -23 5 -6 -6z"/>
<path d="M4483 10895 c-9 -19 -15 -36 -12 -37 33 -22 143 -67 150 -63 5 4 16
19 23 34 15 27 14 28 -32 51 -113 55 -110 55 -129 15z"/>
<path d="M5042 10857 c-82 -19 -83 -20 -77 -46 4 -14 8 -27 9 -29 2 -1 39 6
84 15 83 18 91 24 74 63 -6 14 -16 13 -90 -3z"/>
<path d="M5043 10773 c-63 -15 -75 -28 -55 -60 10 -15 167 18 166 35 -1 7 -2
19 -2 27 -2 18 -26 18 -109 -2z"/>
<path d="M6995 10715 c-10 -36 -16 -67 -14 -69 4 -5 589 -166 600 -166 8 0 44
128 38 135 -5 5 -584 165 -598 165 -5 0 -17 -29 -26 -65z m315 -75 c182 -49
220 -63 209 -74 -9 -9 -423 111 -427 124 -3 8 1 11 9 8 8 -3 102 -29 209 -58z"/>
<path d="M5076 10706 c-50 -11 -90 -23 -90 -26 0 -3 6 -38 13 -78 12 -67 15
-73 35 -69 11 3 56 13 99 22 42 9 77 21 77 27 0 23 -32 148 -38 147 -4 -1 -47
-11 -96 -23z m44 -76 c0 -5 -7 -10 -15 -10 -8 0 -18 0 -22 -1 -4 0 -9 4 -11
10 -2 6 8 11 22 11 14 0 26 -4 26 -10z"/>
<path d="M4503 10655 c-9 -19 -15 -36 -12 -38 2 -1 39 -17 82 -34 l78 -31 14
35 c8 20 15 39 15 43 0 8 -132 60 -151 60 -5 0 -17 -16 -26 -35z"/>
<path d="M6830 10607 c-6 -23 -18 -64 -26 -91 -8 -27 -14 -51 -14 -52 0 -3 71
-24 82 -24 3 0 11 23 18 50 7 28 16 52 21 55 6 5 673 -171 687 -181 2 -1 -3
-27 -11 -58 l-15 -56 40 -11 c22 -5 42 -8 45 -6 2 3 15 44 28 91 21 78 22 86
7 90 -9 3 -199 55 -422 116 -223 61 -411 113 -417 115 -8 3 -17 -12 -23 -38z"/>
<path d="M4746 10599 c-3 -8 -10 -38 -16 -68 -14 -58 -7 -71 36 -71 26 0 30 9
39 83 6 48 5 57 -8 57 -8 0 -22 3 -31 6 -9 3 -18 0 -20 -7z"/>
<path d="M9610 10555 c-92 -29 -170 -126 -170 -211 l1 -39 18 53 c11 31 35 70
56 92 145 148 390 78 493 -140 26 -56 28 -58 70 -63 28 -3 57 -15 80 -34 41
-33 57 -71 26 -59 -86 34 -139 19 -230 -65 -83 -78 -155 -117 -233 -126 -28
-3 -51 -7 -51 -9 0 -2 43 -45 96 -96 53 -51 150 -153 217 -226 108 -118 125
-134 170 -147 139 -41 286 16 338 130 26 57 24 91 -3 40 -49 -96 -119 -139
-223 -139 -151 0 -261 94 -319 272 -12 33 -23 52 -33 52 -29 0 -103 50 -119
81 -8 17 -14 33 -11 35 2 2 20 -3 40 -11 68 -28 118 -20 194 32 98 67 164 94
245 102 l70 6 -174 170 c-192 190 -307 291 -345 306 -35 13 -151 10 -203 -6z"/>
<path d="M6934 10504 c-2 -8 -6 -21 -8 -28 -3 -8 3 -17 12 -20 9 -3 43 -12 75
-21 l59 -17 -22 -23 c-20 -21 -23 -22 -78 -9 -82 20 -82 20 -82 -30 0 -36 3
-45 18 -43 9 0 65 -8 125 -18 99 -18 107 -21 107 -42 0 -13 -4 -23 -10 -23 -5
0 -67 16 -137 35 -70 19 -133 35 -139 35 -17 0 -28 -51 -13 -60 6 -5 70 -23
140 -41 118 -31 129 -35 129 -56 0 -13 -4 -23 -10 -23 -5 0 -91 22 -191 50
-101 27 -184 48 -186 47 -1 -2 -5 -17 -8 -33 l-6 -29 428 -117 c312 -85 430
-114 435 -105 4 7 8 21 8 33 0 18 -17 25 -137 58 -223 60 -243 66 -243 82 0
27 28 25 165 -12 115 -32 138 -35 146 -23 24 38 12 45 -137 85 l-146 39 6 29
c4 16 8 31 9 32 2 2 42 -6 90 -17 77 -18 89 -24 102 -50 13 -24 22 -29 50 -29
19 0 35 2 35 5 0 3 -14 36 -31 75 -18 39 -30 72 -27 75 2 2 21 0 42 -6 45 -12
66 -6 66 18 0 15 -36 28 -212 77 -439 121 -419 116 -424 100z m331 -131 c84
-24 95 -29 104 -55 7 -21 7 -28 -2 -28 -16 0 -239 58 -244 64 -8 7 21 46 34
46 7 0 56 -12 108 -27z"/>
<path d="M2251 10479 c-42 -17 -101 -70 -127 -115 -22 -38 -26 -54 -22 -103 5
-73 41 -124 105 -153 43 -19 47 -19 89 -3 101 38 138 166 67 231 -49 46 -132
17 -149 -53 -9 -33 21 -75 49 -71 19 3 22 9 22 48 0 38 3 45 21 48 49 7 66
-88 24 -133 -70 -74 -180 -16 -180 95 0 54 22 94 72 130 107 78 233 4 246
-145 11 -136 -123 -298 -265 -321 -37 -6 -42 -10 -48 -41 -6 -34 -81 -123
-103 -123 -16 0 -15 21 3 44 20 26 19 99 -1 139 -9 17 -34 57 -56 89 -48 70
-87 177 -88 238 l-1 45 -137 -140 c-182 -186 -321 -343 -338 -382 -8 -18 -14
-61 -14 -95 0 -70 21 -127 70 -188 97 -123 277 -79 346 85 47 114 -35 245
-155 245 -33 0 -49 -7 -81 -36 -23 -21 -45 -52 -52 -75 -22 -76 27 -159 94
-159 42 0 88 48 88 93 0 43 -32 77 -58 60 -9 -6 -16 -19 -14 -29 9 -51 6 -69
-11 -72 -31 -6 -57 27 -57 70 0 52 15 77 54 93 73 31 156 -31 156 -114 0 -131
-140 -215 -243 -146 -88 60 -108 187 -49 307 40 82 114 152 180 172 44 12 47
16 54 55 7 43 30 82 67 115 29 26 34 17 19 -37 -17 -66 -1 -110 76 -196 73
-84 111 -153 127 -232 l11 -55 107 109 c58 60 159 156 223 214 129 117 149
148 150 243 1 97 -46 196 -116 239 -36 23 -112 28 -155 10z"/>
<path d="M4665 10412 c-15 -144 -37 -315 -41 -327 -6 -15 55 -65 78 -65 12 0
16 23 21 122 4 66 7 158 7 203 0 78 -1 82 -29 103 l-30 22 -6 -58z"/>
<path d="M10231 9999 c-118 -23 -213 -128 -196 -218 29 -154 191 -246 311
-176 88 52 110 151 48 217 -75 78 -171 78 -217 0 -19 -32 -19 -36 -4 -68 10
-21 31 -41 53 -51 32 -16 38 -16 62 -2 29 16 43 58 20 61 -7 1 -29 2 -48 2
-30 1 -35 4 -35 26 0 37 41 54 92 38 54 -18 80 -71 60 -121 -21 -50 -61 -77
-114 -77 -74 0 -138 48 -163 124 -24 73 28 157 116 186 48 16 133 7 190 -20
89 -43 184 -168 184 -243 0 -23 8 -31 53 -51 53 -23 107 -75 107 -102 0 -11
-8 -10 -37 6 -67 36 -102 27 -248 -64 -73 -45 -181 -79 -235 -74 -35 3 -38 2
-27 -13 7 -9 51 -68 98 -130 48 -63 126 -171 174 -242 101 -149 127 -167 240
-175 227 -14 338 178 195 340 -70 80 -156 100 -235 55 -109 -62 -112 -183 -6
-254 52 -35 105 -31 147 11 39 39 42 58 14 104 -24 40 -65 58 -97 43 -50 -23
-36 -75 17 -65 22 5 31 1 39 -14 15 -29 -10 -52 -57 -52 -48 0 -77 21 -92 65
-32 98 98 175 191 112 114 -77 113 -213 -4 -271 -59 -30 -93 -32 -165 -11
-108 32 -222 179 -222 286 0 46 -1 48 -45 69 -47 23 -95 80 -95 113 0 16 4 15
37 -8 56 -38 111 -34 214 14 109 51 161 64 247 59 45 -2 68 1 64 7 -13 24
-150 206 -206 275 -155 193 -218 259 -260 274 -56 20 -112 25 -165 15z"/>
<path d="M3055 9875 c-83 -69 -153 -125 -156 -125 -14 0 -149 174 -149 191 0
26 -19 24 -74 -7 -42 -23 -45 -28 -33 -43 7 -9 50 -59 95 -112 l81 -96 -32
-30 c-18 -16 -87 -76 -154 -132 -68 -56 -123 -104 -123 -107 0 -12 42 -64 51
-64 5 0 75 56 156 125 131 110 149 122 160 108 23 -30 55 -127 70 -212 18
-102 8 -189 -37 -333 -16 -51 -28 -93 -27 -94 1 -1 23 -5 49 -9 l46 -7 26 80
c46 147 59 239 46 349 -6 54 -15 115 -21 137 -6 21 -8 40 -6 43 3 2 31 -9 63
-25 109 -54 182 -74 289 -79 55 -2 125 -1 155 4 l55 8 7 50 c4 27 5 51 4 53
-2 1 -46 -1 -97 -5 -139 -12 -243 0 -331 36 -76 32 -188 97 -188 109 0 4 65
61 144 127 l144 120 -22 29 c-13 17 -27 31 -32 33 -6 2 -77 -53 -159 -122z"/>
<path d="M1710 9932 c0 -4 19 -13 43 -19 92 -25 159 -127 158 -241 -1 -126
-79 -235 -217 -303 -35 -18 -62 -35 -59 -39 9 -15 -18 -82 -47 -115 -37 -43
-62 -48 -48 -9 16 40 12 117 -7 144 -9 14 -40 50 -69 81 -60 63 -103 144 -113
206 -3 24 -10 44 -16 45 -26 4 -390 -519 -401 -576 -6 -37 7 -115 30 -169 21
-52 76 -108 131 -133 52 -25 119 -32 130 -14 4 6 -7 10 -25 10 -67 0 -154 60
-193 134 -34 64 -31 182 6 258 28 57 126 159 174 181 19 8 23 18 23 55 0 50
40 132 65 132 11 0 13 -11 8 -48 -7 -64 14 -110 73 -158 124 -102 163 -153
188 -251 l11 -45 112 149 c61 81 149 194 196 250 78 94 86 107 92 157 13 103
-24 208 -95 269 -46 39 -150 73 -150 49z"/>
<path d="M9105 9870 l-29 -31 49 -49 c28 -27 165 -157 305 -289 l255 -239 33
31 33 32 -53 50 c-29 27 -91 85 -136 128 l-84 79 38 39 c21 22 46 39 55 39 10
0 20 4 23 9 6 9 -62 101 -74 101 -4 0 -32 -27 -62 -59 l-55 -59 -115 107
c-172 159 -150 146 -183 111z"/>
<path d="M5845 9874 c-575 -34 -1065 -160 -1550 -399 -1111 -546 -1902 -1606
-2109 -2825 -41 -244 -51 -377 -50 -670 0 -371 32 -631 118 -961 176 -676 522
-1278 1020 -1774 569 -568 1287 -939 2081 -1079 377 -66 822 -71 1210 -15
1375 199 2538 1114 3053 2399 451 1127 347 2409 -281 3451 -268 445 -678 882
-1107 1181 -534 372 -1152 602 -1810 672 -138 15 -466 26 -575 20z m415 -90
c726 -125 1290 -740 1337 -1460 3 -52 8 -94 10 -94 3 0 41 9 86 21 463 118
965 17 1359 -273 110 -80 267 -241 350 -358 127 -179 234 -432 273 -645 36
-201 30 -454 -15 -650 -46 -198 -142 -412 -257 -575 -99 -140 -273 -310 -413
-403 -109 -72 -259 -149 -343 -176 -23 -8 -35 -17 -30 -24 3 -7 19 -31 35 -54
44 -66 123 -228 158 -328 95 -269 114 -581 54 -873 -41 -200 -154 -451 -274
-612 -272 -363 -657 -591 -1097 -650 -131 -18 -409 -8 -535 19 -251 54 -501
174 -693 331 -72 59 -202 190 -246 247 l-24 33 -45 -56 c-160 -201 -440 -397
-695 -487 -205 -73 -319 -91 -555 -91 -215 0 -317 16 -495 75 -850 283 -1312
1200 -1030 2045 31 93 118 276 168 354 36 55 36 55 14 64 -12 5 -72 33 -134
62 -892 419 -1198 1539 -644 2360 252 374 649 624 1106 695 129 21 369 16 512
-9 67 -12 133 -26 147 -32 24 -9 25 -8 31 48 47 452 184 752 475 1042 269 270
584 422 970 470 101 12 323 4 440 -16z"/>
<path d="M4419 8067 c-104 -38 -168 -77 -240 -148 -84 -83 -151 -196 -189
-319 -37 -122 -38 -135 -45 -385 -5 -196 -19 -599 -30 -865 -7 -180 -14 -380
-20 -560 -27 -877 -24 -831 -50 -890 -27 -61 -29 -95 -40 -585 -9 -402 -24
-963 -30 -1101 l-6 -132 71 -51 c45 -33 72 -47 74 -39 2 7 9 249 16 538 6 289
15 687 20 885 7 308 6 366 -7 400 -27 74 -27 75 -5 75 13 0 26 -13 38 -37 24
-48 24 -40 0 -1071 -17 -735 -17 -825 -4 -838 18 -19 21 41 43 1041 8 363 17
697 19 741 4 63 0 96 -15 145 -22 72 -22 140 6 879 8 212 19 552 25 755 12
423 27 820 35 915 8 81 35 172 82 270 48 99 136 188 230 233 68 32 69 32 223
32 135 0 164 -3 227 -23 248 -81 426 -303 513 -642 16 -61 50 -277 50 -319 0
-32 1 -33 32 -27 18 3 49 11 71 17 l39 10 -7 52 c-50 376 -155 646 -325 830
-85 94 -210 169 -342 208 -57 17 -108 22 -233 26 -149 3 -164 2 -226 -20z"/>
<path d="M7197 8064 c-282 -61 -495 -260 -617 -576 -46 -120 -130 -521 -111
-532 8 -5 124 -27 126 -23 1 1 14 78 29 170 66 410 210 659 449 777 102 50
192 70 323 70 243 0 398 -113 492 -360 47 -124 52 -195 77 -1080 3 -96 7 -229
10 -295 8 -180 23 -651 30 -895 3 -118 8 -254 10 -301 4 -67 1 -98 -14 -145
-20 -58 -20 -66 0 -974 11 -503 22 -930 25 -948 l5 -32 70 47 70 48 -6 120
c-3 66 -15 406 -26 755 -28 874 -30 902 -58 941 -15 20 -20 34 -13 41 16 16
47 -7 67 -48 19 -41 19 -29 55 -1149 12 -340 23 -621 26 -624 2 -2 10 1 16 7
9 9 7 165 -6 649 -9 351 -19 739 -22 863 -6 223 -12 278 -41 333 -15 29 -28
318 -53 1157 -6 195 -13 391 -15 435 -2 44 -9 222 -15 395 -20 600 -21 611
-60 724 -84 238 -251 401 -462 451 -80 19 -271 18 -361 -1z"/>
<path d="M4749 7211 c-150 -29 -298 -186 -353 -371 -18 -61 -27 -250 -46
-1030 -7 -245 -13 -490 -15 -545 -2 -55 -9 -314 -14 -575 -15 -691 -19 -752
-46 -808 -21 -44 -23 -64 -29 -337 -3 -159 -9 -385 -12 -500 l-6 -210 77 -23
c43 -13 79 -22 80 -20 8 8 23 1002 16 1021 -5 12 -18 30 -30 41 -19 18 -20 36
-1 36 5 0 23 -12 41 -27 l32 -27 -7 -533 c-7 -522 -7 -533 12 -533 19 0 20 16
27 528 l7 527 -24 55 -24 55 7 320 c4 176 12 496 18 710 6 215 13 489 16 610
27 1204 27 1197 80 1313 38 84 79 128 150 163 58 28 71 31 138 27 61 -3 81 -8
115 -31 48 -34 83 -84 106 -154 l17 -51 61 20 60 21 -6 39 c-15 92 -102 210
-186 253 -79 40 -174 53 -261 36z"/>
<path d="M7065 7206 c-68 -17 -110 -40 -165 -92 -50 -47 -98 -139 -107 -203
-5 -37 -5 -37 52 -59 69 -27 65 -27 65 1 0 12 15 51 33 87 26 50 46 74 87 103
48 33 60 37 116 37 127 0 219 -60 282 -185 53 -105 59 -147 67 -520 3 -132 7
-278 10 -325 3 -47 7 -258 10 -470 3 -212 10 -506 15 -655 5 -148 12 -434 16
-635 6 -356 6 -366 -15 -410 -20 -43 -21 -62 -21 -385 0 -187 3 -438 7 -558 5
-192 8 -217 22 -213 9 3 42 12 74 21 l57 16 0 168 c0 92 -3 325 -7 516 -6 348
-6 349 -30 373 -12 12 -23 27 -23 32 0 19 37 9 61 -16 23 -25 24 -31 30 -242
4 -119 7 -310 8 -423 1 -267 10 -389 27 -389 7 0 15 4 18 8 3 5 0 242 -6 528
l-11 519 -24 49 c-25 49 -25 51 -38 540 -7 270 -16 613 -20 761 -3 149 -8 329
-10 400 -2 72 -7 249 -10 395 -3 146 -10 380 -15 520 -13 363 -38 447 -171
583 -115 116 -247 159 -384 123z"/>
<path d="M5840 6969 c-179 -11 -370 -40 -522 -80 l-38 -10 0 -106 c0 -104 0
-105 23 -99 53 15 290 55 377 65 52 5 173 13 268 17 l172 7 0 103 0 104 -54 0
c-30 0 -60 2 -68 3 -7 2 -78 0 -158 -4z"/>
<path d="M6332 6843 c2 -74 7 -108 16 -111 9 -3 12 23 12 107 0 93 -2 111 -15
111 -13 0 -15 -16 -13 -107z"/>
<path d="M6400 6836 c0 -118 -5 -111 89 -122 l61 -7 0 102 c0 116 3 112 -97
125 l-53 7 0 -105z"/>
<path d="M6720 6767 l0 -102 82 -29 c45 -16 122 -50 172 -75 50 -25 94 -47 99
-49 4 -2 7 43 7 101 l0 104 -118 56 c-96 46 -221 97 -239 97 -1 0 -3 -46 -3
-103z"/>
<path d="M5138 6833 l-38 -15 0 -99 c0 -110 1 -111 65 -85 35 15 35 16 35 78
0 71 -9 138 -19 137 -3 0 -23 -7 -43 -16z"/>
<path d="M5805 6671 c-268 -22 -507 -76 -751 -173 l-100 -39 -3 -45 c-1 -24 1
-44 5 -44 3 0 56 20 117 45 448 178 1012 222 1482 113 109 -25 263 -78 368
-125 42 -20 80 -33 83 -30 3 3 3 23 -1 45 -6 37 -10 42 -73 70 -170 79 -352
130 -569 161 -159 23 -413 33 -558 22z"/>
<path d="M5785 6543 c-212 -26 -442 -71 -487 -95 -15 -7 -18 -23 -18 -100 0
-88 0 -90 23 -85 250 55 435 81 670 93 l127 7 0 93 0 94 -142 -1 c-79 -1 -156
-4 -173 -6z"/>
<path d="M6320 6440 c0 -93 1 -100 20 -100 19 0 20 7 20 94 0 91 -5 106 -36
106 -2 0 -4 -45 -4 -100z"/>
<path d="M6380 6431 l0 -99 71 -12 c39 -7 72 -10 73 -9 2 2 6 45 10 96 6 82 5
92 -11 97 -16 4 -131 26 -140 26 -2 0 -3 -45 -3 -99z"/>
<path d="M6710 6350 c0 -73 3 -100 13 -100 19 0 223 -96 287 -135 32 -19 60
-35 64 -35 3 0 6 44 6 98 l0 97 -33 26 c-18 15 -55 38 -82 51 -58 29 -230 98
-245 98 -6 0 -10 -40 -10 -100z"/>
<path d="M5143 6403 l-43 -15 0 -100 c0 -91 2 -100 18 -93 9 4 29 12 45 17 27
10 27 10 27 109 0 54 -1 99 -2 98 -2 0 -22 -7 -45 -16z"/>
<path d="M5837 6309 c-100 -8 -149 -19 -342 -78 -208 -63 -229 -68 -271 -59
-50 11 -105 -4 -174 -47 -38 -24 -125 -114 -117 -121 2 -3 153 43 335 101
l331 105 103 -16 c57 -9 107 -20 111 -24 4 -4 -184 -67 -418 -141 -487 -153
-455 -130 -294 -214 89 -46 209 -88 367 -130 l93 -24 157 46 c86 25 167 48
180 50 16 4 22 12 22 34 0 27 -1 28 -31 17 -25 -9 -58 -5 -170 18 -76 16 -139
31 -139 34 0 3 73 27 163 53 109 33 171 57 191 74 22 18 36 23 55 18 44 -11
57 -8 416 94 l350 99 -39 16 c-202 84 -548 122 -879 95z"/>
<path d="M6486 5979 c-247 -71 -450 -130 -451 -131 -2 -2 -6 -13 -9 -25 -5
-16 -3 -23 6 -23 7 0 109 29 227 64 195 57 218 62 255 53 l41 -11 -45 -14
c-25 -7 -142 -41 -260 -76 -206 -60 -215 -64 -218 -89 -2 -15 6 -38 19 -56 18
-24 28 -29 48 -25 14 3 161 50 326 105 247 81 305 97 330 90 26 -7 -1 -18
-230 -94 -234 -77 -255 -86 -209 -86 112 -2 372 61 518 125 94 41 125 62 188
122 55 53 69 93 41 124 -22 25 -103 78 -117 77 -6 0 -213 -58 -460 -130z"/>
<path d="M5952 5938 c-13 -13 -18 -241 -6 -272 3 -9 17 -16 30 -16 l25 0 -3
147 c-3 123 -6 148 -18 151 -9 1 -21 -3 -28 -10z"/>
<path d="M5835 5697 c-38 -12 -76 -26 -83 -30 -23 -15 -1 -27 51 -27 43 1 57
5 85 30 30 28 42 51 25 49 -5 0 -39 -10 -78 -22z"/>
<path d="M5893 5643 c-13 -34 -8 -91 10 -111 12 -13 17 -32 15 -54 -3 -30 -7
-34 -51 -45 -66 -16 -106 -42 -144 -92 -45 -58 -58 -114 -83 -339 -26 -236
-39 -278 -117 -363 l-25 -27 49 24 c66 33 181 56 283 58 l85 1 3 -66 3 -66
117 -6 c192 -10 377 -59 478 -126 53 -36 54 -36 54 -13 -1 38 -42 105 -114
182 -118 126 -125 145 -156 425 -11 105 -27 214 -36 242 -29 103 -160 196
-230 164 -14 -6 -42 -11 -62 -10 l-37 1 31 7 c46 11 51 17 57 58 2 21 10 52
18 70 9 23 10 40 3 60 -12 35 -31 36 -47 3 -18 -35 -49 -32 -67 7 -17 37 -27
41 -37 16z m237 -343 c35 -35 26 -50 -30 -50 -48 0 -50 1 -50 28 0 16 3 32 7
35 13 14 54 6 73 -13z m-271 -347 l1 -193 -27 0 c-16 0 -45 -3 -66 -6 -37 -7
-37 -6 -28 18 5 14 17 76 26 139 20 138 41 231 62 278 l16 36 8 -40 c4 -22 8
-127 8 -232z m305 205 c3 -13 12 -84 21 -158 8 -74 18 -154 21 -177 l5 -43
-74 0 -74 0 -7 46 c-3 26 -6 116 -6 200 l0 154 55 0 c49 0 55 -2 59 -22z m30
-454 c36 -5 58 -17 94 -49 40 -36 103 -125 89 -125 -3 0 -23 7 -46 15 -22 8
-69 19 -104 25 -109 18 -105 17 -117 63 -6 23 -13 50 -16 60 -6 19 18 22 100
11z"/>
<path d="M5755 4516 c-85 -14 -181 -40 -205 -55 -12 -8 -11 -14 10 -37 34 -37
132 -99 188 -120 79 -29 74 -37 -20 -31 -89 5 -161 30 -229 78 -23 16 -33 19
-42 10 -18 -18 3 -43 69 -78 136 -73 341 -107 547 -92 93 7 247 44 247 59 0 4
11 11 25 14 14 4 48 20 76 37 64 40 75 31 14 -11 -66 -45 -158 -85 -242 -104
-90 -20 -326 -21 -433 -2 -110 20 -241 71 -289 112 -46 39 -48 46 -25 68 16
17 11 36 -9 36 -17 0 -64 -46 -72 -69 -15 -48 54 -118 168 -172 131 -61 381
-91 577 -69 134 14 208 33 295 75 136 65 188 122 161 176 -29 58 -180 134
-330 165 -100 21 -381 27 -481 10z m175 -56 c41 -22 47 -112 9 -146 -14 -13
-16 -20 -8 -31 12 -13 65 -18 94 -7 25 10 45 59 45 114 0 66 16 64 25 -2 4
-29 12 -59 17 -65 7 -9 45 -13 117 -14 l106 -1 -50 -23 c-27 -13 -56 -29 -63
-35 -8 -7 -65 -12 -155 -13 -118 -2 -147 1 -174 15 -50 28 -73 64 -73 118 0
75 54 120 110 90z"/>
<path d="M9060 9657 c0 -21 -97 -214 -145 -288 -25 -39 -45 -72 -43 -74 9 -8
90 -46 93 -43 33 37 211 365 203 374 -2 1 -27 12 -55 23 -38 15 -53 17 -53 8z"/>
<path d="M8605 9410 c-21 -22 -27 -35 -20 -44 6 -8 160 -154 343 -326 l333
-313 29 34 c16 19 29 37 30 40 0 4 -54 57 -120 119 l-121 113 93 50 c51 27
144 82 205 123 67 44 119 71 128 68 26 -10 17 29 -18 79 l-33 46 -44 -36 c-69
-55 -228 -158 -324 -209 l-86 -46 -175 164 c-96 90 -179 164 -183 166 -4 1
-21 -11 -37 -28z"/>
<path d="M10697 9350 c-75 -19 -144 -74 -166 -133 -19 -49 -12 -52 17 -8 46
68 126 111 209 111 51 0 137 -37 187 -81 53 -47 100 -137 118 -226 12 -60 15
-64 58 -85 31 -16 52 -36 69 -66 13 -24 21 -46 18 -49 -3 -3 -30 6 -58 21 -29
14 -65 26 -79 26 -15 0 -68 -21 -120 -46 -112 -55 -186 -71 -261 -56 -30 5
-55 9 -55 9 -1 -1 27 -54 63 -117 36 -63 101 -189 145 -278 68 -138 87 -168
121 -193 131 -95 319 -69 387 54 l23 42 -50 -47 c-109 -101 -264 -90 -371 26
-62 67 -83 123 -90 233 -4 75 -8 94 -22 98 -40 13 -110 121 -94 147 3 4 25 -8
50 -27 61 -47 103 -49 221 -9 82 28 175 31 246 10 26 -8 47 -12 47 -9 0 17
-211 383 -295 514 -60 92 -66 98 -119 118 -68 25 -147 33 -199 21z"/>
<path d="M1224 9280 c-133 -30 -217 -202 -156 -317 29 -54 123 -102 175 -89
41 10 84 53 103 102 21 56 8 110 -37 148 -52 44 -113 29 -139 -33 -16 -39 -6
-76 26 -97 24 -16 26 -16 42 0 14 13 14 20 4 34 -22 31 -24 42 -12 57 31 37
80 -4 80 -66 0 -31 -6 -47 -29 -70 -35 -35 -79 -38 -126 -9 -115 71 -45 280
93 280 81 0 150 -60 172 -150 30 -126 -41 -287 -157 -352 -50 -28 -53 -32 -53
-69 0 -40 -19 -89 -48 -121 -25 -29 -31 -21 -25 30 8 68 -14 108 -96 179 -86
75 -137 137 -158 193 -9 25 -20 49 -24 53 -9 11 -125 -201 -230 -418 -69 -142
-79 -170 -79 -217 0 -133 124 -267 245 -268 137 0 243 197 173 322 -45 80
-163 118 -225 72 -39 -28 -63 -80 -63 -137 0 -40 5 -53 33 -82 45 -49 86 -55
126 -18 41 37 49 80 21 116 -23 29 -64 36 -73 13 -3 -8 4 -27 15 -42 16 -20
19 -30 11 -43 -28 -44 -82 -8 -90 59 -9 83 60 130 140 96 107 -44 99 -223 -13
-281 -38 -20 -76 -19 -125 4 -120 54 -157 219 -84 368 25 53 106 143 128 143
3 0 6 28 6 63 0 47 6 71 23 100 13 20 27 37 31 37 4 0 7 -24 7 -54 -1 -71 17
-95 125 -168 99 -67 160 -130 185 -193 11 -25 21 -45 24 -45 3 0 32 51 64 113
32 61 101 183 153 269 89 147 94 160 94 211 0 72 -16 123 -57 179 -52 73 -135
113 -200 98z"/>
<path d="M11087 8636 c-96 -27 -140 -78 -144 -169 -3 -52 1 -70 24 -116 41
-79 89 -114 163 -119 51 -4 66 -1 105 22 75 44 94 110 55 187 -42 81 -144 106
-201 50 -34 -35 -36 -62 -8 -107 29 -48 89 -60 112 -23 17 27 1 49 -37 49 -44
0 -57 27 -26 52 28 23 47 23 88 -2 80 -49 57 -154 -39 -180 -103 -28 -212 94
-180 201 14 46 69 96 116 105 169 31 332 -130 329 -328 -1 -61 1 -67 24 -80
31 -16 82 -94 82 -125 0 -29 -1 -29 -40 7 -52 49 -92 50 -239 10 -86 -23 -198
-26 -253 -6 -21 8 -38 12 -38 11 0 -2 22 -58 49 -126 27 -68 75 -204 106 -301
63 -196 71 -208 170 -254 80 -38 198 -30 261 16 119 86 58 337 -88 367 -166
34 -269 -121 -159 -239 30 -32 46 -41 82 -45 38 -4 50 -1 77 22 24 20 32 35
32 60 0 45 -42 95 -80 95 -59 0 -65 -61 -6 -68 56 -7 39 -62 -19 -62 -37 0
-84 40 -86 74 -3 58 14 90 59 112 120 56 249 -102 184 -226 -23 -43 -90 -80
-147 -80 -53 0 -135 41 -176 88 -70 80 -107 222 -79 306 11 35 10 38 -14 57
-31 24 -62 82 -67 123 -5 37 14 45 28 13 6 -14 33 -35 58 -47 46 -22 50 -23
145 -10 120 16 221 10 283 -18 26 -11 47 -19 47 -16 0 25 -187 490 -239 592
-55 108 -189 163 -314 128z"/>
<path d="M785 8580 c-16 -7 -12 -9 19 -9 64 -1 115 -22 166 -68 62 -55 85
-113 84 -208 -1 -93 -35 -165 -117 -248 -60 -60 -61 -63 -58 -109 2 -34 -4
-61 -19 -93 -24 -49 -57 -64 -46 -20 8 33 -8 95 -35 129 -11 14 -52 45 -92 67
-86 51 -149 113 -173 174 -11 25 -22 45 -25 45 -15 0 -178 -462 -214 -605 -17
-69 -17 -71 4 -126 56 -148 223 -240 331 -184 40 21 38 25 -7 15 -49 -12 -129
4 -174 35 -149 98 -156 327 -16 490 32 37 33 40 20 76 -7 21 -10 53 -6 71 6
32 30 88 37 88 3 0 9 -23 15 -51 18 -81 39 -102 151 -149 110 -47 175 -97 216
-166 15 -25 28 -43 30 -42 1 2 22 57 45 123 23 66 75 199 116 294 80 189 80
189 47 294 -22 66 -101 151 -161 171 -50 17 -106 20 -138 6z"/>
<path d="M10195 8185 c-231 -95 -426 -177 -432 -182 -20 -13 20 -93 44 -87 15
4 37 -40 145 -303 109 -265 124 -310 111 -320 -13 -10 -12 -16 4 -52 l18 -40
425 175 c234 96 428 179 433 183 7 7 -313 802 -323 800 -3 0 -194 -79 -425
-174z m519 -259 c70 -170 125 -311 122 -313 -7 -7 -679 -283 -682 -280 -10 9
-255 620 -251 624 6 5 681 282 683 280 1 -1 58 -141 128 -311z"/>
<path d="M10443 8157 c-21 -12 -21 -12 38 -156 32 -79 59 -147 59 -151 0 -3
-33 -23 -72 -44 -40 -20 -110 -63 -156 -96 -46 -33 -91 -60 -101 -60 -9 0 -43
16 -75 35 -32 19 -61 35 -65 35 -4 0 -13 -16 -20 -35 -16 -45 -8 -55 65 -90
l55 -26 -21 -26 c-23 -29 -27 -90 -7 -117 10 -13 32 -19 79 -23 66 -6 66 -5
82 25 24 46 20 52 -27 52 -53 0 -59 5 -45 35 10 23 15 24 147 27 75 2 141 -1
148 -5 22 -15 33 3 33 54 l0 50 -32 -5 c-55 -8 -188 -17 -188 -12 0 6 129 90
178 115 24 12 49 20 55 18 7 -3 27 -43 46 -90 l34 -85 31 13 c17 7 31 20 31
27 0 8 8 26 18 41 34 52 39 78 20 93 -26 20 -38 17 -53 -11 -18 -33 -24 -32
-39 11 -15 41 -6 54 38 54 22 0 23 3 17 42 -9 58 -12 59 -57 41 -22 -8 -43
-13 -46 -9 -4 3 -32 68 -63 144 -32 78 -63 138 -71 139 -8 2 -24 -3 -36 -10z"/>
<path d="M10270 8058 c-52 -22 -98 -43 -103 -47 -4 -4 11 -52 34 -107 23 -54
45 -109 50 -121 l8 -22 98 41 c54 22 101 43 106 47 6 6 -81 233 -94 245 -2 2
-47 -14 -99 -36z m90 -104 c11 -25 20 -49 20 -53 0 -7 -59 -31 -77 -31 -11 0
-50 87 -42 94 3 3 67 32 77 35 1 1 12 -20 22 -45z"/>
<path d="M10017 7965 c-42 -29 -46 -42 -15 -54 11 -4 51 -50 87 -102 65 -91
89 -110 119 -91 9 6 -7 42 -65 140 -43 73 -80 132 -83 132 -3 0 -22 -11 -43
-25z"/>
<path d="M1319 8164 c-41 -102 -42 -107 -24 -120 35 -26 49 -16 76 49 20 49
30 61 45 59 36 -7 38 -20 11 -80 l-25 -59 34 -17 35 -16 20 47 c36 88 31 83
61 70 l26 -12 -26 -63 c-27 -66 -25 -79 17 -84 21 -3 27 5 49 57 13 33 25 61
27 63 2 2 14 -2 28 -10 l25 -13 -35 -89 -36 -88 -18 23 c-18 24 -18 24 -47 6
-41 -24 -49 -22 -57 14 -6 27 -10 30 -33 24 -37 -9 -37 -9 -22 -57 12 -42 12
-43 -23 -73 -34 -29 -34 -31 -20 -58 l14 -28 34 25 c37 29 39 28 49 -26 4 -24
13 -38 21 -38 21 0 19 -14 -17 -102 -32 -77 -40 -86 -67 -69 -15 10 -13 22 18
99 l21 53 -27 10 c-14 5 -31 8 -37 6 -6 -3 -22 -32 -34 -66 -21 -54 -26 -61
-45 -55 -37 11 -38 19 -12 78 32 72 31 79 -6 93 -31 12 -31 12 -53 -40 -13
-29 -25 -60 -29 -69 -4 -11 -13 -15 -27 -11 -24 6 -24 10 9 91 l21 53 -32 14
c-18 7 -34 12 -35 11 -5 -5 -93 -220 -91 -222 3 -2 265 -108 335 -135 22 -8
22 -9 7 -45 -8 -20 -12 -40 -7 -44 4 -5 47 -24 95 -43 l88 -35 20 45 c11 26
18 49 15 52 -3 3 -29 15 -58 28 -30 12 -51 27 -49 35 5 24 264 653 271 661 5
4 34 -3 65 -17 l57 -25 10 27 c6 15 14 36 19 47 7 18 -3 24 -82 58 -50 20 -94
37 -98 37 -4 0 -13 -13 -20 -30 -7 -16 -16 -30 -20 -30 -4 0 -84 32 -178 70
-94 39 -175 70 -180 70 -6 0 -29 -48 -53 -106z m285 -356 c-3 -12 -13 -37 -22
-57 -13 -32 -16 -34 -23 -16 -15 40 -10 64 19 79 35 20 35 20 26 -6z"/>
<path d="M2004 8025 c-8 -19 -37 -90 -65 -158 -27 -67 -54 -126 -58 -130 -4
-4 -16 28 -25 72 -19 88 -31 104 -73 99 -26 -3 -33 -14 -110 -203 -45 -110
-83 -203 -83 -206 0 -3 16 -13 35 -22 42 -20 33 -32 105 148 29 72 54 134 58
139 3 5 11 -10 18 -35 11 -37 11 -47 -2 -66 -14 -22 -13 -24 10 -34 l24 -11
-75 -182 c-41 -99 -77 -186 -80 -192 -2 -7 8 -16 24 -22 15 -5 35 -13 44 -16
13 -6 31 29 94 184 42 104 81 190 87 190 15 0 68 -30 68 -39 0 -5 -7 -25 -16
-46 -20 -48 -13 -65 28 -65 31 0 34 4 61 68 36 89 28 114 -55 151 l-57 26 70
169 c38 94 69 175 69 181 0 10 -53 35 -74 35 -4 0 -14 -16 -22 -35z"/>
<path d="M1247 8004 c-32 -17 -32 -16 -11 -56 l16 -32 -43 -37 c-43 -36 -43
-36 -26 -63 l18 -26 39 31 c22 18 42 30 43 28 2 -2 10 -25 17 -51 13 -50 23
-56 53 -34 17 13 17 17 3 66 -9 29 -13 56 -10 61 3 5 23 18 45 29 21 11 39 23
39 26 0 5 -20 46 -26 53 -2 2 -23 -8 -47 -23 l-45 -26 -12 30 c-16 39 -20 41
-53 24z"/>
<path d="M11345 7875 c-41 -16 -90 -56 -107 -90 -10 -19 -9 -19 13 1 76 68
198 85 287 40 121 -62 181 -188 168 -352 -6 -67 -4 -83 8 -87 36 -14 98 -157
69 -157 -5 0 -28 17 -50 39 -53 50 -92 57 -190 35 -118 -26 -214 -13 -314 43
-3 2 9 -60 27 -137 18 -78 45 -212 59 -298 32 -189 36 -202 87 -248 89 -80
213 -107 303 -65 40 18 98 71 78 71 -6 0 -16 -7 -23 -14 -20 -25 -108 -49
-160 -44 -145 14 -250 144 -250 311 0 32 7 86 15 118 l15 59 -29 41 c-32 44
-51 123 -33 141 7 7 18 -3 37 -32 39 -63 95 -84 195 -75 93 8 181 -11 253 -55
32 -20 47 -25 47 -16 0 43 -88 416 -136 576 -30 98 -51 125 -137 171 -72 38
-167 48 -232 24z"/>
<path d="M516 7820 c-43 -13 -103 -77 -121 -128 -20 -60 -19 -139 3 -181 56
-112 219 -137 274 -43 58 98 6 222 -93 222 -47 0 -75 -24 -85 -74 -4 -26 -1
-43 10 -61 17 -26 57 -42 75 -30 18 10 12 44 -9 55 -23 13 -27 48 -5 56 31 12
66 -6 81 -42 39 -93 -45 -166 -145 -124 -45 18 -71 67 -71 130 0 190 226 225
316 48 59 -117 32 -280 -62 -379 -31 -32 -34 -39 -24 -63 13 -35 12 -82 -4
-125 -18 -50 -33 -49 -39 5 -8 77 -37 102 -193 171 -66 29 -138 85 -174 135
l-29 39 -10 -38 c-41 -154 -111 -546 -111 -620 0 -165 217 -307 352 -231 85
48 124 191 80 291 -51 115 -222 143 -282 45 -26 -44 -27 -122 0 -165 21 -36
66 -63 103 -63 58 0 101 72 77 130 -15 35 -63 58 -85 40 -22 -18 -18 -37 11
-56 34 -23 29 -58 -8 -62 -43 -5 -78 36 -78 90 1 64 36 98 100 98 75 0 130
-61 130 -143 0 -98 -48 -158 -132 -164 -96 -8 -187 66 -218 175 -25 92 -2 227
51 294 l30 38 -17 49 c-14 38 -16 58 -8 97 11 60 29 67 38 15 10 -65 50 -95
179 -135 118 -37 197 -82 240 -137 l25 -32 12 59 c27 139 64 294 96 411 40
146 40 155 13 227 -27 72 -108 149 -181 171 -57 17 -70 17 -112 5z"/>
<path d="M11524 7082 c-101 -48 -133 -176 -73 -298 51 -106 199 -135 280 -55
55 55 44 160 -22 216 -66 55 -169 20 -169 -57 0 -61 58 -111 101 -88 29 16 23
45 -13 61 -41 17 -48 45 -16 59 51 24 112 -30 112 -97 0 -46 -38 -83 -94 -90
-137 -19 -214 173 -110 272 41 39 137 47 196 17 80 -42 134 -122 154 -232 13
-69 8 -115 -16 -172 -16 -35 -16 -37 10 -70 30 -40 55 -133 39 -149 -7 -7 -17
0 -31 25 -36 61 -61 70 -207 77 -138 7 -215 26 -275 69 l-31 22 5 -33 c12 -72
26 -310 26 -443 0 -121 3 -145 21 -182 43 -91 148 -155 254 -158 79 -1 132 30
165 99 32 66 26 174 -13 233 -63 96 -210 110 -275 27 -28 -36 -30 -116 -4
-165 54 -100 198 -84 196 21 -2 66 -66 113 -102 77 -20 -20 -14 -37 19 -53 40
-21 38 -58 -4 -63 -41 -5 -87 45 -87 95 0 50 22 80 67 92 94 26 173 -45 173
-156 0 -79 -48 -137 -122 -149 -83 -14 -175 44 -226 140 -24 45 -27 62 -27
151 0 90 3 105 26 147 l27 47 -24 47 c-24 48 -33 137 -15 148 5 3 20 -15 32
-41 31 -63 67 -81 186 -98 119 -17 199 -46 253 -92 22 -19 40 -31 40 -26 0 48
-25 326 -41 468 -23 198 -38 244 -95 294 -83 74 -209 101 -290 63z"/>
<path d="M304 7026 c-45 -20 -53 -37 -12 -25 132 37 275 -45 315 -180 26 -91
14 -177 -39 -281 -37 -73 -42 -91 -32 -104 6 -10 15 -32 18 -51 7 -38 -9 -115
-24 -115 -5 0 -14 19 -21 42 -17 65 -64 103 -151 122 -100 23 -187 67 -237
121 -25 27 -43 40 -46 33 -10 -31 -25 -335 -25 -506 l0 -188 33 -46 c64 -90
146 -138 237 -138 59 0 125 24 150 55 14 17 14 17 -19 1 -18 -10 -56 -20 -85
-23 -109 -11 -199 41 -254 147 -33 63 -34 68 -30 160 3 77 9 106 31 153 l27
58 -22 30 c-29 39 -40 159 -14 159 9 0 16 -6 16 -13 0 -23 50 -87 81 -103 17
-8 69 -19 116 -24 113 -12 175 -34 237 -85 l52 -42 13 181 c6 99 18 228 26
286 22 164 21 179 -25 247 -78 117 -215 173 -316 129z"/>
<path d="M11624 6291 c-34 -9 -108 -51 -101 -57 2 -2 20 3 40 11 20 8 64 15
97 15 108 0 186 -55 238 -168 21 -48 24 -64 20 -140 -3 -62 -12 -105 -30 -148
l-25 -62 24 -38 c16 -28 23 -54 23 -91 0 -63 -15 -77 -34 -31 -33 77 -72 98
-224 117 -95 12 -155 36 -216 85 l-42 36 -12 -166 c-6 -92 -19 -235 -29 -319
-19 -172 -17 -183 47 -264 52 -66 129 -105 205 -106 39 0 73 7 98 19 46 23 41
32 -9 16 -46 -16 -120 -7 -171 19 -160 82 -193 295 -75 482 27 42 28 46 13 69
-21 32 -21 134 0 156 15 14 17 13 23 -13 23 -89 71 -130 181 -153 81 -16 168
-64 215 -118 37 -42 39 -43 44 -20 12 52 26 328 26 500 l0 184 -28 45 c-66
103 -198 165 -298 140z"/>
<path d="M260 6219 c-68 -27 -110 -101 -110 -191 1 -101 41 -169 122 -203 49
-20 84 -19 135 4 126 58 81 272 -57 271 -60 -1 -96 -45 -84 -104 10 -55 63
-89 99 -62 23 17 14 43 -20 56 -19 7 -26 16 -23 32 6 43 79 35 103 -12 38 -74
2 -139 -81 -147 -44 -5 -54 -2 -82 22 -44 37 -62 75 -62 132 0 92 59 153 148
153 84 0 157 -53 202 -146 20 -41 24 -65 25 -144 0 -85 -3 -102 -27 -147 l-26
-51 24 -48 c23 -46 30 -96 18 -128 -9 -25 -19 -19 -33 19 -17 49 -67 83 -137
95 -155 27 -180 33 -228 54 -28 13 -66 35 -84 50 -20 17 -32 23 -32 14 0 -53
24 -323 41 -468 22 -190 38 -241 91 -285 85 -72 216 -97 295 -56 61 30 87 73
91 148 6 86 -13 148 -58 193 -78 78 -220 67 -268 -21 -21 -39 -10 -122 21
-162 45 -60 131 -72 173 -26 43 48 5 149 -57 149 -57 0 -60 -50 -4 -64 18 -5
25 -13 25 -31 0 -29 -32 -41 -71 -27 -35 14 -50 35 -56 80 -4 33 -1 44 25 73
27 30 36 34 79 34 93 0 149 -70 141 -176 -3 -47 -10 -65 -32 -88 -68 -71 -198
-59 -278 26 -75 79 -108 241 -70 342 l21 53 -25 27 c-27 29 -44 78 -44 129 0
42 11 41 34 -3 34 -63 73 -78 207 -82 133 -4 218 -25 275 -68 l35 -27 -6 34
c-11 66 -25 306 -25 443 0 167 -10 197 -89 268 -75 67 -187 95 -261 66z"/>
<path d="M10661 6122 c-65 -33 -89 -118 -51 -179 55 -90 168 -93 227 -4 28 41
29 85 5 130 -35 64 -114 88 -181 53z"/>
<path d="M1216 6109 c-104 -82 -51 -243 80 -241 98 1 158 94 121 185 -31 72
-141 103 -201 56z"/>
<path d="M11545 5462 c-65 -42 -97 -106 -98 -197 -1 -119 60 -187 173 -193 56
-3 69 -1 94 19 76 60 73 191 -6 239 -72 44 -148 10 -148 -68 0 -47 29 -82 69
-82 42 0 47 26 11 59 -35 32 -32 61 7 61 56 0 91 -51 79 -115 -13 -69 -104
-95 -172 -50 -62 40 -78 150 -34 222 60 100 226 77 295 -41 66 -112 51 -289
-32 -377 -24 -26 -24 -28 -9 -57 18 -35 21 -108 6 -147 -11 -30 -30 -25 -30 8
0 32 -35 84 -72 106 -17 11 -54 25 -82 31 -87 20 -210 85 -250 132 -20 23 -36
38 -36 34 0 -22 -74 -349 -105 -460 -19 -70 -35 -142 -34 -160 2 -110 118
-234 236 -252 91 -13 181 64 205 176 20 100 -12 177 -92 218 -120 60 -230 -11
-217 -141 4 -42 10 -56 41 -84 70 -65 156 -33 156 58 0 46 -30 82 -63 77 -30
-4 -33 -35 -7 -63 28 -30 20 -55 -18 -55 -70 0 -96 107 -40 160 30 28 106 28
142 -1 59 -46 72 -123 34 -199 -31 -60 -65 -82 -125 -82 -154 0 -242 172 -184
360 15 51 33 83 66 120 41 45 44 53 35 77 -5 14 -10 39 -10 55 0 33 28 110 40
110 4 0 10 -20 12 -44 8 -70 37 -100 146 -152 121 -57 182 -102 220 -160 l30
-45 17 73 c50 221 105 534 105 601 0 73 -73 177 -155 219 -58 30 -161 35 -200
10z"/>
<path d="M306 5416 c-22 -8 -53 -29 -70 -46 l-31 -31 48 25 c66 35 123 41 189
22 165 -48 245 -238 184 -441 -12 -39 -12 -46 2 -57 24 -20 52 -89 52 -130 0
-47 -12 -48 -40 -4 -38 63 -76 78 -189 77 -124 -1 -184 11 -253 53 l-54 32 13
-69 c24 -126 74 -336 113 -474 31 -109 45 -142 70 -168 71 -73 202 -111 294
-85 47 13 109 58 127 92 10 18 7 17 -23 -5 -53 -41 -102 -57 -170 -57 -77 0
-131 25 -188 86 -70 76 -85 121 -85 254 0 109 -1 116 -24 134 -39 32 -81 146
-53 146 4 0 23 -16 42 -35 50 -52 94 -60 199 -40 124 25 202 14 313 -43 4 -2
3 12 -3 30 -21 74 -60 263 -89 428 l-30 174 -41 42 c-86 88 -210 125 -303 90z"/>
<path d="M10406 5341 c-2 -3 -18 -58 -36 -121 -18 -63 -34 -118 -37 -122 -6
-11 -82 30 -108 58 l-23 25 -31 -45 c-17 -24 -31 -47 -31 -49 0 -3 26 -20 58
-37 71 -40 163 -105 233 -165 l53 -45 28 27 c15 15 28 33 28 41 0 12 11 13 58
6 31 -4 106 -8 167 -8 l110 -1 32 -65 c18 -36 38 -90 45 -120 6 -30 12 -56 14
-58 4 -6 84 38 84 47 0 17 -43 146 -65 198 l-23 52 46 27 c51 30 152 104 152
111 0 4 -30 51 -46 72 -2 2 -27 -14 -57 -36 -29 -23 -76 -52 -105 -67 l-52
-26 -67 41 c-71 44 -145 80 -278 135 -46 19 -79 38 -79 46 1 7 5 25 9 39 6 24
3 27 -34 37 -23 5 -43 7 -45 3z m129 -214 c22 -8 92 -41 155 -73 88 -44 109
-59 92 -62 -23 -3 -181 11 -263 24 -32 5 -39 4 -39 -10 0 -22 -10 -20 -43 7
l-28 22 17 62 c19 68 11 66 109 30z"/>
<path d="M929 5233 c-5 -16 -15 -41 -21 -56 -10 -26 -8 -31 33 -73 117 -119
291 -207 436 -221 35 -3 63 -10 63 -14 0 -5 -4 -9 -9 -9 -22 0 -185 -169 -238
-247 -56 -82 -123 -202 -123 -221 0 -4 23 -25 50 -45 l50 -38 11 28 c107 262
219 397 410 491 123 61 249 98 277 83 27 -15 32 -5 32 62 l0 60 -32 -6 c-18
-3 -71 -13 -118 -22 -126 -23 -303 -30 -385 -16 -111 20 -232 88 -335 188 -46
46 -86 83 -88 83 -1 0 -7 -12 -13 -27z"/>
<path d="M10206 4886 c-9 -30 -19 -69 -23 -86 -5 -28 -9 -31 -32 -25 -14 3
-31 13 -37 21 -18 23 -30 16 -48 -29 -9 -23 -16 -46 -16 -50 0 -3 21 -13 48
-20 54 -16 53 -9 16 -136 -13 -47 -22 -86 -20 -88 2 -2 19 -6 38 -9 l35 -6 66
233 c36 129 64 235 63 237 -2 1 -19 5 -39 9 l-35 5 -16 -56z"/>
<path d="M10277 4698 c-25 -90 -47 -172 -49 -182 -3 -17 11 -24 92 -48 52 -15
100 -28 106 -28 10 0 117 350 109 358 -4 4 -196 62 -206 62 -4 0 -27 -73 -52
-162z m144 44 c14 -6 13 -17 -10 -100 -25 -90 -27 -93 -51 -87 -14 4 -27 8
-29 11 -4 4 25 119 40 162 9 22 21 26 50 14z"/>
<path d="M10754 4708 c-5 -50 -14 -93 -20 -95 -6 -2 -26 31 -44 74 -17 43 -37
84 -42 91 -14 17 -53 15 -68 -3 -7 -9 -36 -97 -65 -198 l-52 -182 34 -12 c20
-7 39 -11 43 -8 4 2 22 61 41 130 18 69 37 125 40 125 4 0 15 -20 24 -45 14
-35 24 -47 51 -55 39 -13 39 -9 19 -120 -20 -116 -22 -110 33 -110 l47 0 2 90
c1 50 5 94 8 100 3 5 18 5 36 -2 26 -9 30 -14 24 -35 -21 -85 -21 -83 24 -83
36 0 43 4 52 28 6 15 13 47 16 72 4 39 2 48 -20 68 -14 13 -44 29 -68 37 l-44
13 3 90 3 91 -30 15 c-16 9 -32 16 -34 16 -2 0 -8 -41 -13 -92z"/>
<path d="M11385 4676 c-29 -13 -27 -14 35 -13 159 1 264 -108 264 -273 0 -87
-27 -159 -94 -245 -37 -48 -39 -53 -29 -89 13 -47 3 -109 -22 -138 -18 -22
-18 -22 -19 -3 0 39 -21 95 -46 124 -15 18 -51 40 -97 57 -117 44 -174 87
-226 169 l-29 46 -23 -68 c-33 -100 -100 -271 -159 -407 -46 -107 -51 -124
-45 -165 24 -160 173 -286 297 -250 l43 13 -66 6 c-108 10 -185 73 -215 177
-35 119 3 240 107 344 58 58 59 60 59 117 0 55 26 122 49 122 5 0 11 -25 13
-55 6 -73 26 -99 129 -162 92 -56 150 -115 176 -180 10 -24 21 -43 24 -43 13
0 148 377 199 557 27 97 28 105 15 151 -18 61 -66 133 -110 166 -69 53 -166
70 -230 42z"/>
<path d="M488 4621 c-15 -5 -40 -18 -56 -30 -105 -74 -73 -293 52 -358 67 -35
175 -10 220 51 43 56 16 157 -54 203 -38 26 -79 29 -119 8 -44 -22 -54 -71
-26 -124 21 -42 80 -57 105 -26 18 22 5 43 -32 53 -26 6 -33 13 -33 33 0 21 5
24 38 27 30 3 43 -2 67 -27 42 -42 42 -99 0 -134 -38 -33 -64 -40 -105 -33
-98 19 -158 157 -105 244 42 68 156 90 240 47 113 -58 189 -223 162 -351 -11
-55 -11 -57 14 -76 32 -26 64 -89 64 -128 0 -16 -2 -30 -5 -30 -3 0 -19 16
-36 35 -45 51 -90 61 -193 45 -112 -17 -229 -10 -283 19 -24 12 -43 19 -43 16
0 -29 180 -477 243 -605 41 -83 151 -137 260 -127 172 15 243 142 166 296 -69
137 -219 162 -313 51 -83 -100 45 -267 167 -217 19 9 41 25 47 37 18 33 4 85
-31 114 -34 29 -37 30 -74 16 -38 -14 -31 -54 10 -58 31 -4 55 -18 55 -33 0
-17 -33 -39 -60 -39 -36 0 -87 42 -95 80 -13 61 45 120 120 120 68 0 118 -43
145 -123 27 -84 -23 -164 -117 -186 -111 -27 -232 46 -295 177 -26 55 -32 80
-33 137 0 69 -1 71 -43 110 -40 38 -77 110 -65 128 3 5 20 -5 37 -22 18 -18
49 -36 68 -42 38 -10 46 -9 192 30 92 24 164 27 229 7 26 -8 47 -13 47 -11 0
1 -14 35 -31 76 -17 41 -64 173 -104 294 -79 239 -94 263 -180 308 -44 23
-170 33 -217 18z"/>
<path d="M2136 4029 c-10 -17 -15 -40 -12 -52 3 -12 39 -73 80 -135 66 -99
106 -153 242 -322 18 -21 34 -45 36 -52 8 -24 36 10 43 54 7 38 5 43 -38 87
-69 70 -206 259 -262 360 -27 50 -55 91 -60 91 -6 0 -19 -14 -29 -31z"/>
<path d="M1853 3987 c-51 -29 -93 -56 -93 -61 0 -5 9 -24 20 -42 l21 -33 61
36 c48 28 62 33 69 22 45 -69 349 -599 349 -607 0 -6 -24 -25 -54 -42 l-55
-31 21 -37 c12 -20 23 -38 24 -40 1 -2 169 93 182 104 2 1 -17 38 -42 82 -25
43 -46 81 -46 84 0 8 80 -11 104 -24 24 -13 36 4 36 53 0 36 0 36 -51 43 -29
4 -70 13 -93 21 -24 9 -43 10 -46 5 -3 -5 -20 15 -37 45 -18 30 -28 55 -24 55
7 0 61 109 61 123 0 3 -13 15 -30 27 l-29 21 -22 -46 c-12 -25 -24 -45 -28
-45 -12 0 -62 93 -53 99 5 3 19 32 30 63 l21 57 -26 21 c-14 11 -29 20 -32 20
-4 0 -16 -19 -28 -42 l-21 -43 -18 33 c-11 18 -33 55 -49 82 l-30 49 -92 -52z"/>
<path d="M9609 3722 c-75 -114 -144 -219 -153 -234 l-18 -28 168 -110 c92 -60
171 -110 175 -110 4 0 17 16 30 36 21 35 21 37 5 50 -11 8 -15 18 -10 26 4 7
50 78 102 157 69 107 96 141 105 132 17 -17 24 -14 51 26 l25 37 -137 91 c-75
50 -153 101 -172 113 l-36 21 -135 -207z m239 26 c42 -28 78 -52 80 -53 2 -2
-37 -64 -87 -139 -50 -75 -94 -144 -100 -153 -8 -15 -19 -11 -90 36 -45 30
-81 57 -81 62 0 11 188 299 195 299 3 0 41 -23 83 -52z"/>
<path d="M11155 3917 c-57 -23 -85 -49 -115 -110 -48 -96 -40 -187 22 -243 65
-60 146 -71 199 -27 101 85 64 251 -57 253 -65 0 -106 -90 -64 -143 15 -18 30
-27 44 -25 27 4 33 34 11 58 -24 26 -15 54 17 58 22 3 32 -3 48 -30 28 -47 26
-84 -9 -119 -34 -33 -83 -39 -131 -14 -85 44 -77 210 13 265 36 22 106 26 140
9 92 -48 140 -161 117 -276 -20 -97 -68 -175 -131 -217 -35 -24 -36 -27 -32
-68 4 -32 -1 -59 -17 -96 -26 -60 -52 -71 -43 -18 3 22 -2 49 -15 79 -17 39
-34 55 -106 101 -100 65 -159 122 -193 189 l-25 49 -80 -148 c-44 -81 -114
-202 -156 -268 l-77 -121 1 -70 c0 -55 6 -81 26 -120 34 -66 105 -131 159
-145 153 -41 304 165 227 310 -31 57 -117 106 -167 95 -65 -14 -121 -86 -121
-155 0 -123 153 -168 190 -56 15 47 -8 96 -46 96 -29 0 -42 -25 -26 -51 20
-32 15 -59 -11 -59 -36 0 -62 35 -62 82 0 33 6 45 33 69 18 16 41 29 52 29 39
0 90 -29 110 -62 39 -64 21 -149 -44 -206 -31 -27 -44 -32 -90 -32 -101 0
-166 75 -174 200 -7 116 61 243 160 299 49 28 52 32 54 75 3 50 21 91 53 120
27 24 33 18 22 -21 -11 -39 0 -94 26 -126 10 -13 46 -47 79 -75 74 -61 133
-139 155 -205 l17 -50 46 79 c26 44 96 178 156 300 116 233 124 259 100 344
-36 131 -189 236 -285 197z"/>
<path d="M802 3869 c-71 -14 -140 -65 -161 -121 -9 -23 -4 -21 34 17 120 121
319 84 418 -76 26 -42 47 -130 49 -203 2 -63 4 -69 29 -82 15 -7 36 -25 48
-39 22 -29 46 -93 38 -102 -3 -3 -24 9 -46 27 -57 46 -107 50 -212 14 -98 -33
-209 -38 -271 -11 -21 9 -38 13 -38 8 0 -14 184 -338 265 -466 76 -120 86
-132 136 -157 158 -80 341 -17 384 132 l7 25 -18 -25 c-58 -83 -135 -130 -216
-130 -151 0 -278 123 -311 303 -12 64 -13 67 -57 90 -30 16 -53 37 -69 66 -13
23 -21 45 -18 48 3 3 31 -7 61 -22 68 -33 96 -30 204 25 94 48 177 64 252 50
29 -6 54 -9 56 -8 1 2 -25 50 -58 108 -33 58 -97 181 -144 274 -46 93 -91 177
-99 186 -23 26 -123 67 -175 72 -25 3 -64 2 -88 -3z"/>
<path d="M1720 3819 c-14 -51 -13 -52 95 -78 44 -10 88 -22 97 -26 18 -7 21 0
31 68 3 22 0 28 -17 31 -39 7 -171 38 -183 43 -7 2 -16 -12 -23 -38z"/>
<path d="M10116 3640 c-58 -88 -106 -164 -105 -168 0 -6 78 -58 293 -196 l78
-50 24 29 c29 37 30 51 4 65 -19 10 -17 15 40 101 59 86 62 89 82 75 20 -14
23 -13 45 19 13 19 23 38 23 42 0 8 -345 236 -365 241 -7 2 -60 -69 -119 -158z
m225 -21 c61 -41 89 -65 85 -75 -3 -8 -28 -47 -56 -89 l-50 -74 -95 61 -95 61
18 27 c77 120 97 150 100 150 1 0 43 -27 93 -61z"/>
<path d="M1557 3743 c-3 -5 -8 -25 -12 -45 -7 -35 -6 -37 53 -76 l59 -41 -20
-63 c-10 -35 -21 -70 -24 -78 -5 -17 -92 73 -146 152 -17 26 -35 48 -38 48 -3
0 -13 -18 -22 -40 l-16 -41 46 -57 c25 -31 72 -84 104 -117 54 -55 61 -68 85
-150 14 -50 44 -129 66 -177 l41 -88 43 0 c24 0 44 4 44 9 0 5 -22 55 -49 112
-28 57 -53 116 -56 130 l-6 26 83 -28 c46 -15 101 -29 123 -31 35 -3 40 0 49
24 8 23 -1 43 -73 168 -46 78 -81 143 -79 145 16 16 50 -18 93 -92 59 -102 83
-122 150 -125 l49 -3 6 37 c7 37 6 38 -29 44 -20 3 -43 8 -51 10 -17 4 -110
162 -110 186 0 21 68 61 93 54 16 -4 18 -1 14 22 -3 15 -10 40 -16 55 l-11 29
-48 -28 c-45 -26 -112 -69 -136 -88 -12 -8 -152 58 -223 104 -17 11 -34 17
-36 13z m241 -344 c35 -61 62 -112 60 -114 -5 -5 -114 40 -144 60 -23 15 -25
21 -19 53 9 54 27 112 34 112 3 0 34 -50 69 -111z"/>
<path d="M2026 3538 c-3 -39 -3 -75 1 -78 5 -4 25 -10 46 -13 l37 -6 0 69 c0
75 -14 100 -54 100 -21 0 -24 -6 -30 -72z"/>
<path d="M2159 3368 c-7 -13 -30 -47 -52 -76 l-40 -53 23 -24 c37 -39 36 -40
111 68 39 56 40 59 22 73 -43 34 -52 35 -64 12z"/>
<path d="M9858 3248 c-52 -79 -100 -153 -106 -165 -11 -20 -1 -28 175 -143
l187 -123 23 29 c27 34 29 52 8 60 -23 9 -19 22 37 106 33 51 56 77 65 73 7
-3 19 -7 26 -10 9 -4 57 53 57 69 0 4 -365 246 -372 246 -3 0 -48 -64 -100
-142z m217 -45 c54 -35 84 -61 81 -70 -3 -7 -28 -47 -56 -88 l-50 -74 -95 60
-95 61 19 27 c10 14 34 52 54 84 20 31 41 57 47 57 6 0 49 -26 95 -57z"/>
<path d="M10780 3211 c-21 -6 -17 -8 27 -14 72 -10 138 -58 176 -126 60 -107
35 -249 -63 -355 -23 -25 -62 -58 -86 -73 -39 -25 -44 -32 -44 -66 0 -49 -20
-96 -55 -127 l-28 -25 6 48 c9 66 -12 124 -60 162 -122 97 -171 158 -198 248
-6 21 -14 38 -18 38 -5 0 -54 -62 -111 -138 -57 -76 -144 -187 -194 -246 -83
-99 -91 -113 -97 -161 -19 -153 82 -304 210 -313 l50 -3 -45 15 c-60 19 -122
74 -149 130 -26 56 -28 151 -4 221 22 67 117 161 200 200 56 26 63 32 63 58 0
15 9 45 21 65 20 35 66 77 75 68 3 -2 -1 -24 -7 -49 -19 -72 -6 -109 67 -190
73 -81 109 -147 124 -227 6 -30 11 -56 13 -57 5 -5 219 287 312 426 l97 145
-4 76 c-5 86 -29 146 -80 198 -56 58 -142 89 -198 72z"/>
<path d="M1153 3150 c-63 -25 -119 -85 -129 -137 -15 -79 44 -196 122 -240 50
-29 121 -30 174 -3 46 24 90 83 90 123 0 60 -56 132 -118 152 -59 18 -142 -30
-142 -82 0 -63 67 -117 116 -94 54 24 40 63 -23 65 -72 2 -49 66 25 66 48 0
92 -46 92 -95 0 -29 -8 -45 -34 -71 -30 -30 -41 -34 -84 -34 -60 0 -107 29
-139 85 -64 113 16 230 157 230 143 -1 283 -141 297 -297 5 -47 9 -59 27 -64
33 -10 69 -42 93 -82 37 -60 27 -68 -33 -27 -51 35 -91 32 -193 -14 -114 -51
-160 -63 -248 -63 l-73 1 43 -57 c205 -276 376 -477 425 -499 60 -26 176 -23
236 6 141 70 171 190 75 311 -80 101 -201 119 -282 42 -62 -59 -73 -123 -32
-185 36 -53 79 -72 152 -68 37 2 86 53 86 90 0 43 -46 91 -88 91 -40 0 -68
-21 -63 -46 3 -15 12 -19 48 -19 38 0 45 -3 48 -22 4 -26 -31 -53 -69 -53 -34
0 -85 41 -93 75 -4 14 0 40 8 60 58 138 279 66 279 -92 0 -48 -18 -81 -69
-120 -30 -22 -49 -28 -106 -31 -61 -4 -76 -1 -133 27 -94 46 -185 160 -185
232 0 34 -10 44 -52 58 -39 13 -108 81 -108 106 0 12 8 11 40 -6 61 -32 112
-23 207 38 99 64 181 94 255 95 54 1 58 2 46 18 -7 10 -59 78 -114 151 -56 74
-132 181 -170 237 -58 89 -76 108 -119 129 -69 36 -170 41 -242 13z"/>
<path d="M2720 2589 c-157 -187 -291 -349 -299 -360 -13 -18 -11 -22 20 -49
29 -24 36 -26 49 -15 13 11 51 -17 260 -191 291 -243 277 -231 263 -245 -8 -8
-2 -19 23 -41 19 -17 36 -29 38 -27 47 52 589 705 592 713 4 11 -627 549 -650
553 -6 2 -139 -150 -296 -338z m588 -7 c164 -138 240 -207 235 -216 -14 -22
-464 -556 -469 -556 -4 0 -393 324 -482 401 -29 26 -31 32 -20 47 7 10 114
139 237 285 195 233 226 266 240 255 9 -7 125 -104 259 -216z"/>
<path d="M2952 2681 l-21 -29 107 -88 c58 -49 115 -96 125 -105 19 -15 18 -17
-26 -77 -25 -35 -70 -110 -99 -168 l-53 -105 -85 3 -85 2 4 -39 c1 -22 8 -43
14 -48 7 -4 40 -6 75 -5 l62 3 0 -40 c0 -52 19 -87 51 -99 20 -7 39 -3 83 17
l56 26 0 46 0 45 -40 -20 c-52 -27 -60 -25 -60 10 0 27 6 33 63 58 35 16 90
46 121 66 32 21 65 35 72 32 9 -3 14 2 14 14 0 22 -31 80 -43 80 -5 0 -27 -13
-50 -28 -23 -16 -64 -41 -91 -56 l-48 -28 36 68 c42 79 102 164 116 164 5 0
38 -25 74 -55 35 -30 69 -55 74 -55 19 0 44 39 37 57 -4 10 -7 43 -6 74 2 56
2 57 -28 61 -28 4 -31 2 -31 -23 0 -40 -18 -45 -49 -15 l-26 27 29 23 c31 26
28 43 -14 81 l-22 20 -30 -37 -30 -38 -123 105 c-69 58 -126 105 -128 105 -2
0 -13 -13 -25 -29z"/>
<path d="M2831 2496 l-70 -84 87 -74 c48 -40 94 -79 104 -86 14 -11 25 -2 87
71 39 47 71 87 71 90 0 7 -192 167 -201 167 -4 0 -39 -38 -78 -84z m145 -50
l39 -35 -32 -32 -31 -32 -41 32 -41 33 26 34 c15 19 30 34 34 34 3 0 24 -15
46 -34z"/>
<path d="M2662 2311 c-29 -52 -28 -61 9 -61 19 0 72 -22 133 -55 l103 -55 22
24 22 24 -113 69 c-167 103 -151 98 -176 54z"/>
<path d="M8847 2869 l-38 -20 20 -27 c11 -15 42 -56 70 -92 l51 -65 -37 -31
c-36 -30 -36 -30 -18 -57 9 -15 19 -27 22 -27 2 0 20 12 39 27 42 31 37 35
124 -87 56 -78 160 -273 202 -378 15 -39 19 -42 45 -36 15 4 32 10 36 14 23
20 -131 331 -232 470 l-70 95 25 23 c14 12 30 20 35 16 14 -8 156 -197 231
-308 78 -114 85 -147 41 -182 -28 -22 -28 -23 -8 -38 35 -28 62 -29 94 -7 36
26 46 65 31 121 -13 49 -122 212 -258 388 -53 69 -100 130 -104 136 -4 6 -31
-9 -67 -37 -34 -26 -63 -47 -65 -47 -10 0 -116 143 -116 156 0 18 -7 17 -53
-7z"/>
<path d="M8525 2574 c-115 -92 -209 -170 -207 -175 1 -5 67 -92 146 -193 208
-264 278 -373 315 -488 10 -31 19 -39 49 -47 20 -6 38 -9 40 -6 2 2 1 22 -3
44 -16 95 -110 245 -333 531 -58 74 -110 140 -114 147 -6 8 51 58 181 159 179
140 190 150 177 169 -7 11 -20 21 -27 22 -8 1 -108 -72 -224 -163z"/>
<path d="M8785 2600 c-42 -34 -55 -37 -55 -15 0 19 -2 19 -45 -2 -37 -18 -43
-31 -22 -52 10 -10 5 -18 -23 -42 -39 -33 -50 -36 -50 -14 0 19 -13 19 -50 0
-34 -18 -37 -27 -14 -46 15 -12 12 -17 -24 -49 l-41 -35 20 -24 20 -24 38 31
c38 30 39 31 56 12 16 -18 16 -20 -11 -43 l-28 -24 85 -108 c46 -60 87 -113
90 -118 4 -5 35 11 68 38 51 38 64 45 76 35 8 -7 15 -16 15 -20 0 -4 -34 -33
-75 -65 l-75 -57 48 -62 c27 -33 70 -89 97 -123 l48 -62 28 20 c16 11 29 25
29 31 0 6 -32 51 -72 100 l-71 90 29 24 c55 46 60 47 89 9 l26 -35 -25 -31
c-32 -38 -32 -43 -1 -63 26 -17 45 -14 45 8 0 7 23 44 51 84 39 55 55 71 72
69 16 -1 23 4 25 21 3 19 6 21 18 11 23 -19 16 -51 -18 -80 -37 -31 -32 -45
17 -54 25 -5 37 0 69 29 35 33 38 40 33 72 -4 24 -31 69 -78 131 -40 51 -76
96 -80 98 -3 3 -41 -23 -83 -56 -73 -58 -78 -61 -91 -43 -13 17 -11 22 22 49
21 17 48 39 62 51 l24 20 -92 117 -93 117 -33 -26 c-33 -25 -34 -25 -44 -5
-15 27 -17 23 33 61 44 32 45 33 28 56 -9 13 -20 24 -23 24 -3 0 -23 -13 -44
-30z m-55 -155 c10 -13 9 -19 -6 -36 -32 -36 -54 -43 -73 -24 -15 15 -13 18
19 45 41 34 43 35 60 15z m132 -47 c14 -20 13 -24 -15 -47 l-29 -25 -19 25
c-17 23 -17 24 3 46 27 29 42 29 60 1z m72 -92 c15 -24 15 -26 -15 -47 l-32
-22 -18 24 c-18 24 -18 24 9 46 34 28 36 28 56 -1z m-202 -3 c24 -21 23 -25
-11 -51 l-29 -21 -17 26 c-17 25 -17 27 6 44 29 23 28 23 51 2z m74 -94 c19
-21 18 -21 -10 -46 l-29 -25 -18 23 c-17 23 -17 25 3 46 26 28 30 28 54 2z
m349 -117 c-2 -2 -22 6 -45 18 -49 25 -64 16 -56 -32 7 -38 -9 -43 -32 -11
l-20 27 47 38 46 37 32 -37 c17 -20 30 -38 28 -40z"/>
<path d="M10304 2539 c-49 -14 -119 -82 -144 -141 -41 -96 -6 -194 85 -238 80
-38 156 -4 190 85 22 56 14 103 -23 137 -36 33 -56 39 -91 27 -58 -20 -81 -99
-41 -139 24 -24 33 -25 50 -5 11 13 11 20 0 40 -17 31 -7 55 24 55 54 0 64
-93 17 -141 -51 -51 -128 -32 -166 41 -57 110 62 253 183 221 37 -10 89 -56
110 -97 21 -41 25 -119 8 -177 -29 -100 -141 -218 -223 -233 -27 -5 -33 -11
-33 -30 0 -14 -6 -39 -14 -57 -15 -37 -74 -100 -86 -92 -4 2 -1 24 8 49 22 61
7 105 -68 191 -69 80 -114 162 -130 239 l-11 52 -102 -104 c-56 -57 -159 -155
-229 -218 -140 -127 -152 -146 -151 -250 1 -129 97 -254 194 -254 72 0 172 67
209 141 44 85 12 192 -70 238 -49 27 -89 27 -131 -2 -51 -34 -79 -82 -79 -134
0 -38 5 -50 35 -80 31 -31 40 -35 68 -29 68 14 107 90 68 136 -16 21 -23 23
-38 14 -13 -9 -17 -22 -15 -52 3 -44 -18 -63 -45 -40 -41 34 -34 112 12 142
42 28 92 21 131 -18 29 -29 34 -41 34 -79 0 -59 -11 -85 -51 -125 -63 -62
-141 -66 -204 -11 -97 85 -83 242 34 362 52 55 104 85 164 95 36 7 43 12 51
42 12 39 85 120 109 120 15 0 14 -5 -4 -40 -32 -61 -23 -110 39 -204 60 -91
91 -168 100 -250 l7 -58 140 143 c191 196 315 337 333 379 23 55 12 176 -20
231 -61 103 -143 145 -234 118z"/>
<path d="M1699 2520 c-90 -15 -163 -69 -193 -142 -25 -60 -18 -78 10 -28 36
63 52 78 109 107 96 49 223 27 318 -56 37 -33 117 -177 117 -211 0 -22 16 -35
55 -44 33 -8 105 -78 105 -102 0 -9 -3 -14 -8 -12 -113 50 -141 48 -237 -18
-96 -66 -149 -87 -234 -93 l-74 -6 139 -139 c161 -160 331 -313 377 -339 50
-29 169 -19 244 19 76 39 125 105 129 177 l4 52 -18 -50 c-24 -70 -94 -139
-163 -159 -66 -20 -92 -20 -159 0 -101 30 -177 99 -228 205 -25 54 -29 57 -70
62 -28 3 -57 15 -80 34 -41 33 -58 72 -26 58 11 -4 40 -10 65 -12 59 -7 95 12
180 91 77 73 142 106 221 114 32 2 58 6 58 8 0 1 -48 49 -106 106 -58 57 -158
160 -220 229 -98 108 -121 128 -157 137 -66 17 -108 20 -158 12z"/>
<path d="M7617 2040 c-60 -21 -111 -40 -113 -43 -4 -3 11 -46 22 -65 1 -1 31
8 68 22 l67 24 11 -24 c14 -30 8 -37 -61 -59 -51 -17 -53 -18 -47 -48 3 -17 9
-33 12 -36 3 -3 33 4 67 16 64 22 76 19 77 -19 0 -11 -19 -23 -65 -38 -36 -12
-65 -23 -65 -24 0 -2 5 -17 11 -35 12 -35 11 -35 101 -1 l47 18 10 -28 c9 -28
9 -28 -76 -59 -100 -36 -107 -37 -93 -12 16 31 12 37 -30 50 l-40 12 15 29
c19 37 19 35 -10 54 -24 16 -25 16 -45 -25 l-21 -41 -48 7 c-47 6 -49 6 -59
-23 -10 -30 -10 -31 29 -37 21 -4 39 -9 39 -12 0 -4 -12 -21 -26 -40 -20 -26
-23 -37 -14 -48 6 -7 7 -15 3 -18 -17 -9 -174 -59 -177 -56 -2 2 -7 14 -10 26
-6 19 0 24 49 42 31 12 60 21 65 21 16 0 20 17 9 47 l-10 30 -66 -24 c-68 -25
-76 -23 -87 14 -6 19 0 23 61 43 37 13 69 24 71 25 7 6 -22 65 -32 65 -7 0
-39 -9 -71 -20 -46 -16 -60 -17 -67 -8 -16 26 -7 35 53 53 67 21 75 29 60 68
l-10 26 -103 -35 c-57 -19 -108 -36 -115 -39 -9 -3 6 -56 47 -175 33 -94 60
-177 60 -185 0 -7 -16 -19 -36 -25 -19 -7 -33 -17 -31 -24 2 -6 17 -49 32 -96
15 -47 29 -86 30 -87 6 -9 95 31 95 43 0 7 -9 35 -19 63 l-20 49 257 88 c141
48 299 102 349 120 51 18 94 30 96 26 3 -4 12 -31 22 -60 18 -58 21 -58 89
-32 l26 9 -34 93 c-35 96 -37 98 -90 87 -15 -3 -27 23 -82 180 -36 102 -65
186 -67 187 -1 1 -51 -15 -110 -36z m-84 -427 c9 -3 17 -8 17 -12 0 -7 -101
-43 -106 -38 -2 1 6 17 18 35 15 23 25 31 37 26 9 -3 24 -9 34 -11z"/>
<path d="M4320 2042 c0 -46 10 -63 44 -78 l31 -13 -38 -1 c-38 0 -39 0 -32
-32 4 -18 9 -41 11 -50 6 -22 6 -22 -40 -3 -20 9 -59 24 -85 35 l-49 19 -42
-101 c-23 -55 -40 -101 -38 -103 2 -2 20 -10 41 -19 l38 -15 19 45 c11 25 20
49 20 52 0 4 4 13 9 21 7 11 74 -13 344 -124 l335 -138 -24 -55 c-13 -30 -24
-58 -24 -63 0 -13 72 -41 81 -32 6 7 79 178 79 187 0 2 -38 18 -85 36 -47 18
-85 36 -85 40 0 10 82 46 96 42 24 -5 25 19 4 53 -24 39 -35 42 -66 20 -12 -8
-45 -24 -75 -35 -30 -12 -57 -26 -60 -32 -4 -6 -25 -2 -56 12 -48 21 -51 23
-56 68 -10 82 -22 102 -62 102 -38 0 -39 -1 -26 -67 5 -24 6 -43 2 -43 -3 0
-29 10 -57 21 -37 16 -50 26 -47 38 2 9 -3 36 -12 60 -8 24 -15 47 -15 51 0 5
57 -11 128 -35 70 -23 181 -55 247 -70 66 -15 130 -32 143 -38 35 -17 45 2 26
51 -15 36 -22 42 -53 47 -94 16 -289 71 -406 116 -180 69 -165 66 -165 31z"/>
<path d="M7397 1960 l-15 -38 -55 13 c-53 12 -55 12 -61 -9 -10 -38 -6 -44 34
-51 22 -4 42 -11 45 -16 3 -4 -6 -27 -21 -49 -23 -35 -25 -43 -13 -51 29 -18
50 -9 77 36 30 50 32 51 92 30 24 -8 44 -14 45 -13 0 2 6 16 13 31 11 25 10
28 -14 37 -13 6 -36 13 -49 16 -29 7 -29 7 -9 45 18 35 17 37 -24 48 -28 8
-31 7 -45 -29z"/>
<path d="M9822 1955 c201 -105 171 -392 -52 -505 -31 -15 -74 -33 -96 -39 -36
-10 -41 -15 -51 -54 -12 -45 -69 -107 -98 -107 -18 0 -18 8 0 40 8 14 14 48
15 77 0 47 -5 60 -57 135 -65 96 -96 180 -91 255 2 34 -1 49 -7 45 -6 -4 -57
-43 -114 -87 -57 -44 -169 -125 -249 -180 -120 -82 -150 -108 -166 -140 -24
-50 -33 -178 -17 -228 18 -54 66 -114 110 -137 59 -29 70 -24 23 10 -83 60
-123 161 -102 256 30 135 138 226 302 255 37 7 68 17 68 23 0 25 53 87 90 106
47 24 59 12 29 -29 -12 -16 -24 -50 -26 -76 -5 -41 0 -59 43 -148 48 -101 49
-103 49 -199 -1 -65 3 -94 10 -89 5 4 57 43 115 86 129 96 297 233 368 299 57
53 82 112 82 191 0 102 -63 209 -144 246 -62 28 -90 23 -34 -6z"/>
<path d="M2247 1946 c-175 -63 -229 -219 -117 -335 60 -61 112 -84 181 -79 70
5 117 37 149 103 29 59 21 103 -25 150 -62 62 -152 67 -203 12 -48 -52 -34
-112 33 -144 39 -19 76 -9 94 26 15 27 -12 55 -39 41 -28 -15 -57 -12 -64 6
-8 22 -9 21 16 44 34 32 92 27 130 -10 27 -28 30 -36 25 -73 -8 -62 -60 -107
-123 -107 -61 0 -119 33 -150 86 -92 157 111 296 306 208 76 -34 151 -112 176
-182 17 -46 22 -52 47 -52 39 0 88 -24 122 -60 34 -35 27 -48 -15 -30 -17 7
-50 10 -75 8 -45 -6 -51 -9 -167 -106 -67 -56 -134 -92 -202 -107 l-49 -11
134 -101 c185 -138 404 -283 447 -295 134 -37 331 97 332 226 1 100 -121 206
-236 206 -124 0 -223 -150 -157 -238 27 -37 91 -72 131 -72 121 0 170 142 65
187 -44 18 -90 3 -99 -33 -11 -42 21 -58 59 -29 25 18 47 9 47 -20 0 -34 -33
-58 -82 -58 -35 0 -47 6 -71 33 -24 27 -28 39 -23 69 16 102 124 143 223 86
109 -65 99 -214 -20 -277 -33 -18 -58 -23 -122 -23 -70 0 -87 4 -140 32 -70
36 -140 103 -157 150 -11 31 -15 33 -58 33 -34 0 -58 8 -93 30 -26 16 -47 34
-47 39 0 6 22 7 53 4 71 -7 97 8 186 106 76 84 146 136 210 155 21 6 38 16 38
21 -1 6 -53 49 -117 96 -63 47 -169 129 -234 183 -65 54 -133 102 -150 107
-45 13 -125 10 -169 -5z"/>
<path d="M4225 1700 c-38 -19 -82 -40 -97 -45 -26 -10 -26 -10 -11 -48 15 -36
18 -38 47 -33 17 4 60 20 95 36 35 17 70 30 77 30 12 0 12 6 -1 38 -26 60 -32
62 -110 22z"/>
<path d="M4352 1629 c-18 -44 -32 -91 -32 -104 0 -21 -8 -25 -67 -39 -38 -8
-103 -18 -145 -22 -43 -4 -78 -9 -78 -11 0 -2 9 -22 21 -44 l20 -41 75 7 c68
7 74 6 74 -11 0 -11 11 -45 24 -77 l24 -59 -51 7 c-51 7 -176 37 -209 50 -14
6 -15 2 -7 -32 5 -21 9 -41 9 -44 0 -9 154 -46 245 -59 39 -6 77 -16 86 -23
77 -57 181 -124 236 -152 l66 -34 33 26 c19 14 34 29 34 32 0 4 -35 24 -77 44
-43 20 -100 50 -128 68 l-50 32 55 18 c30 10 81 31 113 46 49 23 57 31 57 54
0 14 -6 31 -12 36 -7 5 -77 36 -155 68 -79 32 -143 61 -143 65 0 23 52 15 139
-21 104 -44 128 -45 187 -8 38 23 42 38 18 74 l-16 25 -33 -20 c-18 -11 -42
-20 -53 -20 -23 0 -189 68 -197 81 -8 12 23 82 43 97 16 12 14 16 -18 43 -19
16 -39 29 -46 29 -6 0 -25 -36 -42 -81z m97 -315 l114 -48 -49 -16 c-27 -9
-70 -20 -96 -23 l-47 -6 -25 52 c-34 73 -42 101 -25 94 8 -3 65 -27 128 -53z"/>
<path d="M4512 1642 l-23 -18 41 -54 c23 -30 45 -56 50 -58 10 -4 70 26 70 35
0 12 -92 113 -103 113 -7 0 -22 -8 -35 -18z"/>
<path d="M4743 1446 l1 -96 44 0 43 0 -3 93 -3 92 -42 3 -41 3 1 -95z"/>
<path d="M7496 1470 c-109 -38 -201 -72 -203 -74 -3 -3 0 -21 7 -41 10 -30 15
-35 33 -29 12 4 84 28 160 54 75 26 137 46 137 44 0 -19 -50 -75 -72 -79 -21
-5 -26 -12 -25 -32 2 -24 -7 -28 -182 -89 -102 -36 -187 -67 -189 -69 -6 -6
17 -85 24 -85 3 0 91 29 196 65 104 36 192 65 193 65 8 0 26 -71 21 -79 -4 -5
-23 -15 -44 -21 -53 -18 -57 -25 -33 -59 l21 -30 63 21 c96 31 114 66 82 158
-8 24 -14 44 -13 45 2 1 82 29 178 63 188 65 185 62 161 124 l-9 25 -173 -59
c-95 -32 -173 -57 -175 -56 -1 2 20 33 47 70 27 37 49 76 49 86 0 19 -29 52
-46 51 -5 0 -99 -31 -208 -69z"/>
<path d="M2879 1461 c-64 -25 -107 -59 -136 -109 -31 -52 -43 -104 -34 -140 7
-25 8 -23 15 20 10 68 59 135 126 172 48 27 64 31 130 30 55 0 88 -6 123 -22
55 -25 155 -116 183 -167 15 -28 25 -35 49 -35 51 0 100 -19 130 -50 l28 -29
-65 1 c-74 1 -122 -21 -154 -70 -60 -92 -166 -172 -251 -190 l-38 -8 80 -47
c44 -26 181 -98 304 -159 250 -124 266 -128 372 -89 108 41 190 143 188 236
-1 71 -15 86 -22 23 -14 -143 -114 -227 -267 -228 -98 0 -177 36 -258 117 -55
56 -59 58 -104 54 -47 -3 -138 28 -138 47 0 5 26 12 57 15 68 7 98 27 138 91
72 115 94 143 141 178 27 21 67 44 88 51 l39 13 -153 82 c-84 46 -206 116
-272 157 -118 74 -121 75 -186 75 -40 -1 -86 -8 -113 -19z"/>
<path d="M9093 1454 c-60 -22 -128 -86 -149 -139 -51 -134 78 -281 194 -221
50 26 84 71 89 119 13 108 -80 164 -153 92 -28 -28 -33 -85 -8 -106 24 -20 49
1 49 41 0 20 7 37 17 44 43 27 70 -64 36 -117 -38 -56 -123 -50 -165 12 -44
65 -21 146 57 199 43 29 71 36 114 28 70 -13 125 -88 126 -172 1 -147 -161
-304 -314 -304 -38 0 -45 -3 -50 -23 -9 -37 -44 -76 -88 -98 -22 -11 -42 -18
-45 -15 -3 3 5 19 17 37 13 18 25 52 28 79 4 41 -2 62 -36 137 -49 106 -66
176 -60 254 2 33 3 59 2 59 -2 0 -61 -32 -131 -72 -70 -39 -196 -104 -278
-145 -134 -65 -153 -78 -177 -116 -49 -78 -59 -155 -33 -245 40 -133 159 -176
289 -104 72 39 108 89 114 155 7 83 -45 166 -116 184 -37 9 -99 -14 -136 -51
-103 -104 7 -266 113 -167 35 33 39 59 13 92 -26 32 -50 19 -54 -28 -5 -68
-68 -50 -68 20 0 18 10 39 29 58 68 67 171 15 171 -87 0 -113 -148 -194 -240
-131 -50 33 -73 79 -73 146 0 102 62 189 175 246 61 30 80 35 143 35 73 0 73
0 94 36 15 24 38 43 77 61 30 14 58 22 61 19 3 -3 -8 -21 -25 -40 -37 -43 -49
-96 -33 -151 53 -184 62 -261 41 -334 -5 -19 -8 -37 -5 -39 10 -10 477 259
564 325 49 38 82 117 82 199 0 83 -41 176 -94 211 -43 30 -111 37 -164 17z"/>
<path d="M5970 1409 c-72 -15 -116 -104 -88 -177 39 -104 201 -109 244 -7 45
108 -40 208 -156 184z"/>
<path d="M3630 1096 c-86 -23 -148 -75 -190 -157 -45 -88 -9 -189 86 -241 93
-51 179 -49 240 4 110 96 85 233 -49 269 -32 9 -48 7 -84 -6 -48 -18 -69 -44
-79 -93 -14 -68 103 -126 149 -74 37 41 7 93 -33 57 -23 -20 -64 -16 -68 7 -2
10 8 29 22 43 37 37 98 35 137 -4 34 -35 37 -71 11 -120 -37 -69 -122 -89
-202 -48 -62 31 -85 67 -85 131 0 179 252 248 438 119 21 -15 50 -43 63 -63
23 -33 27 -35 82 -35 56 0 131 -28 139 -51 2 -5 -20 -10 -51 -10 -65 0 -112
-31 -153 -102 -61 -107 -132 -180 -210 -218 l-45 -21 134 -51 c230 -87 489
-167 539 -166 59 1 147 43 188 90 113 128 99 264 -34 330 -147 71 -292 5 -302
-139 -5 -62 9 -93 56 -124 40 -27 116 -31 160 -9 95 49 75 186 -27 186 -60 0
-105 -59 -68 -89 16 -13 42 -6 50 15 3 8 17 14 31 14 21 0 25 -5 25 -29 0 -65
-101 -96 -154 -46 -32 30 -36 94 -7 141 28 47 99 71 158 56 58 -16 90 -38 110
-76 36 -69 5 -172 -66 -220 -56 -37 -106 -49 -190 -44 -92 6 -160 33 -216 88
-39 38 -42 39 -79 29 -40 -11 -90 -6 -132 13 -34 16 -30 25 16 31 74 10 104
38 159 150 56 114 104 177 169 218 l43 27 -53 17 c-93 31 -250 92 -396 154
-151 65 -161 67 -232 47z"/>
<path d="M8531 1038 c156 -151 66 -403 -166 -463 -32 -8 -85 -15 -117 -15 -32
0 -58 -4 -58 -9 0 -16 -51 -71 -79 -85 -72 -37 -91 -27 -46 26 13 16 30 47 36
69 11 36 9 48 -21 137 -38 110 -43 205 -16 281 12 31 12 42 3 38 -130 -52
-279 -107 -419 -152 -101 -33 -183 -65 -196 -78 -34 -32 -82 -135 -88 -193 -8
-68 17 -144 62 -190 44 -43 65 -45 28 -1 -39 46 -54 89 -54 154 0 107 70 206
179 257 38 18 65 21 162 21 l117 1 33 32 c18 18 49 37 68 42 74 20 93 7 42
-29 -48 -34 -65 -83 -55 -160 4 -36 8 -109 8 -161 1 -83 -2 -102 -25 -148 -31
-62 -46 -63 149 10 155 57 339 135 431 181 55 27 69 40 93 83 79 143 45 314
-74 375 l-43 22 46 -45z"/>
<path d="M4345 801 c-135 -65 -208 -209 -161 -316 13 -29 14 -28 14 35 0 106
46 184 137 233 33 18 57 22 135 22 109 0 155 -17 246 -92 47 -37 57 -42 79
-33 38 14 79 12 125 -6 45 -18 52 -34 15 -34 -34 0 -94 -26 -122 -52 -12 -11
-36 -55 -53 -97 -40 -99 -89 -165 -151 -204 -34 -21 -46 -33 -37 -38 38 -21
489 -106 613 -115 71 -6 86 -4 123 15 93 47 163 138 178 228 7 47 -9 112 -36
145 -19 23 -19 23 -4 -27 19 -64 12 -122 -23 -188 -52 -95 -152 -143 -280
-135 -62 4 -88 12 -158 47 -81 41 -84 42 -114 27 -47 -25 -151 -19 -151 9 0 7
14 15 32 19 74 15 112 68 142 201 20 85 67 165 123 209 l42 33 -137 28 c-75
15 -211 47 -301 71 -90 24 -176 44 -190 44 -14 0 -53 -13 -86 -29z"/>
<path d="M7299 766 c-8 -8 -249 -58 -412 -86 -198 -33 -220 -46 -274 -149 -28
-53 -33 -73 -33 -132 0 -78 14 -114 59 -152 43 -35 95 -50 152 -44 120 14 190
77 197 176 10 134 -87 205 -205 151 -79 -35 -106 -121 -57 -179 29 -35 67 -40
114 -16 47 24 55 97 12 103 -18 3 -26 -4 -37 -32 -16 -37 -32 -45 -53 -24 -20
20 -14 67 12 93 69 69 168 24 170 -79 2 -82 -67 -141 -164 -141 -68 0 -111 27
-134 85 -22 55 -20 96 8 155 27 60 70 99 146 134 71 32 206 37 259 8 32 -18
33 -18 55 2 30 28 89 51 131 51 43 0 44 -9 3 -35 -64 -41 -72 -62 -79 -218 -7
-147 -20 -202 -59 -258 -19 -26 -20 -29 -4 -29 57 0 600 137 654 165 50 26
105 114 119 192 19 101 -20 202 -92 240 -78 40 -225 4 -282 -71 -52 -68 -44
-175 17 -236 25 -25 37 -30 79 -30 59 0 97 17 133 60 54 65 23 170 -50 170
-75 0 -121 -51 -95 -106 18 -41 55 -26 63 26 2 19 9 25 28 25 22 0 25 -5 28
-41 3 -36 -1 -45 -28 -68 -59 -49 -139 -24 -159 51 -28 100 60 190 176 181 84
-7 133 -67 133 -161 0 -53 -40 -137 -82 -172 -82 -69 -203 -104 -293 -85 l-56
12 -39 -36 c-21 -19 -56 -39 -77 -45 -73 -21 -82 -11 -28 32 51 41 61 85 45
206 -15 115 -9 204 19 267 19 42 19 44 2 44 -10 0 -20 -2 -22 -4z"/>
<path d="M5125 639 c-91 -46 -159 -157 -157 -255 1 -103 90 -174 219 -174 119
0 194 73 193 188 -1 87 -48 132 -140 132 -85 0 -139 -45 -140 -117 0 -45 9
-62 42 -79 60 -31 135 9 126 68 -5 34 -45 37 -58 4 -11 -30 -45 -35 -58 -8
-22 40 28 92 88 92 100 0 130 -118 50 -195 -57 -55 -195 -43 -237 21 -59 90
-13 215 102 277 34 19 56 22 145 22 91 0 111 -3 150 -24 25 -13 55 -32 67 -43
20 -19 23 -19 46 -3 40 26 167 21 167 -6 0 -5 -7 -9 -15 -9 -9 0 -34 -9 -55
-20 -46 -23 -70 -65 -95 -161 -25 -95 -63 -168 -118 -226 l-50 -53 34 0 c19 0
88 -5 154 -10 179 -14 509 -14 537 1 129 67 204 240 149 346 -78 153 -347 128
-391 -36 -33 -126 53 -221 175 -190 93 23 138 127 80 184 -24 25 -73 33 -110
19 -27 -11 -47 -61 -35 -85 15 -27 42 -20 58 14 18 37 56 34 60 -5 10 -89
-124 -128 -171 -49 -67 114 74 243 206 187 52 -22 79 -59 85 -116 9 -94 -37
-167 -141 -222 -36 -20 -57 -23 -147 -23 -96 0 -109 2 -154 28 -42 23 -51 25
-65 14 -37 -32 -138 -48 -170 -28 -12 7 -5 14 27 26 23 10 53 30 66 46 24 28
30 52 54 197 13 77 53 167 93 208 l29 30 -176 13 c-98 6 -229 18 -293 26 -153
19 -179 19 -226 -6z"/>
<path d="M6500 629 c-36 -4 -171 -10 -300 -14 -268 -8 -280 -12 -358 -100 -87
-99 -97 -254 -22 -320 l23 -20 -19 35 c-27 51 -25 162 3 215 27 50 75 96 133
126 38 21 59 24 140 23 80 0 105 -4 159 -27 64 -27 64 -27 95 -8 40 24 88 34
126 26 39 -9 38 -21 -3 -39 -65 -27 -107 -102 -107 -191 0 -86 -37 -180 -97
-246 l-35 -39 28 0 c122 1 598 52 660 71 43 13 112 85 140 144 31 66 39 124
24 183 -11 48 -61 122 -82 122 -6 0 -4 -8 5 -18 48 -53 62 -182 28 -257 -58
-127 -230 -192 -401 -151 l-70 17 -27 -26 c-38 -35 -127 -58 -146 -38 -4 3 17
28 45 53 l53 47 6 144 c5 151 17 196 69 269 14 20 17 29 8 28 -7 0 -42 -4 -78
-9z"/>
</g>
</svg>
